<svg width="626" height="667" viewBox="0 0 626 667" fill="none" xmlns="http://www.w3.org/2000/svg">
<path d="M622.629 353.467H124.195V353.716H622.629V353.467Z" fill="#E0E0E0"/>
<path d="M529.621 361.043H497.761V361.292H529.621V361.043Z" fill="#E0E0E0"/>
<path d="M569.775 360.924H534.077V361.173H569.775V360.924Z" fill="#E0E0E0"/>
<path d="M403.527 365.29H338.192V365.539H403.527V365.29Z" fill="#E0E0E0"/>
<path d="M332.45 365.29H321.844V365.539H332.45V365.29Z" fill="#E0E0E0"/>
<path d="M272.03 360.674H240.33V360.924H272.03V360.674Z" fill="#E0E0E0"/>
<path d="M462.631 360.674H433.872V360.924H462.631V360.674Z" fill="#E0E0E0"/>
<path d="M218.229 363.595H188.921V363.844H218.229V363.595Z" fill="#E0E0E0"/>
<path d="M360.453 309.007H167.967C166.459 309.004 165.014 308.403 163.949 307.336C162.883 306.269 162.285 304.822 162.285 303.315V32.7345C162.298 31.2352 162.902 29.8017 163.966 28.7452C165.03 27.6888 166.468 27.0948 167.967 27.0922H360.453C361.962 27.0922 363.41 27.6919 364.477 28.7594C365.545 29.8269 366.145 31.2747 366.145 32.7843V303.315C366.145 304.824 365.545 306.272 364.477 307.34C363.41 308.407 361.962 309.007 360.453 309.007ZM167.967 27.2916C166.525 27.2942 165.144 27.8688 164.125 28.8893C163.106 29.9098 162.534 31.2927 162.534 32.7345V303.315C162.534 304.756 163.106 306.139 164.125 307.16C165.144 308.18 166.525 308.755 167.967 308.757H360.453C361.895 308.755 363.278 308.181 364.298 307.16C365.318 306.14 365.893 304.757 365.895 303.315V32.7345C365.893 31.2918 365.318 29.9089 364.298 28.8887C363.278 27.8685 361.895 27.2942 360.453 27.2916H167.967Z" fill="#E0E0E0"/>
<path d="M576.085 309.007H383.59C382.081 309.004 380.635 308.403 379.568 307.337C378.501 306.27 377.9 304.823 377.898 303.315V32.7345C377.913 31.2343 378.52 29.8008 379.585 28.7446C380.651 27.6885 382.09 27.0948 383.59 27.0922H576.085C577.583 27.0974 579.018 27.6926 580.08 28.7487C581.141 29.8049 581.744 31.237 581.757 32.7345V303.315C581.757 304.821 581.16 306.266 580.097 307.332C579.034 308.399 577.591 309.001 576.085 309.007ZM383.59 27.2916C382.147 27.2942 380.764 27.8685 379.744 28.8887C378.724 29.9089 378.15 31.2918 378.147 32.7345V303.315C378.15 304.757 378.724 306.14 379.744 307.16C380.764 308.181 382.147 308.755 383.59 308.757H576.085C577.528 308.755 578.911 308.181 579.931 307.16C580.951 306.14 581.525 304.757 581.528 303.315V32.7345C581.525 31.2918 580.951 29.9089 579.931 28.8887C578.911 27.8685 577.528 27.2942 576.085 27.2916H383.59Z" fill="#E0E0E0"/>
<path d="M275.918 287.026C254.421 287.032 233.404 280.661 215.529 268.719C197.653 256.777 183.721 239.802 175.496 219.94C167.271 200.078 165.123 178.223 169.322 157.139C173.522 136.056 183.881 116.692 199.089 101.498C199.113 101.474 199.141 101.455 199.171 101.442C199.202 101.429 199.235 101.422 199.269 101.422C199.302 101.422 199.335 101.429 199.366 101.442C199.397 101.455 199.425 101.474 199.448 101.498L219.445 121.496C219.47 121.519 219.489 121.547 219.502 121.578C219.515 121.608 219.522 121.642 219.522 121.675C219.522 121.709 219.515 121.742 219.502 121.772C219.489 121.803 219.47 121.831 219.445 121.854C207 134.291 199.009 150.488 196.711 167.931C194.414 185.375 197.939 203.088 206.739 218.323C215.539 233.558 229.123 245.462 245.381 252.187C261.639 258.912 279.662 260.081 296.653 255.515C296.683 255.502 296.715 255.495 296.748 255.495C296.78 255.495 296.812 255.502 296.842 255.515C296.9 255.547 296.943 255.601 296.962 255.664L304.289 282.998C304.314 283.059 304.314 283.127 304.289 283.188C304.252 283.246 304.195 283.288 304.129 283.307C294.928 285.774 285.444 287.024 275.918 287.026ZM199.269 102.027C182.5 118.878 171.749 140.782 168.676 164.355C165.602 187.928 170.379 211.857 182.267 232.444C194.155 253.03 212.492 269.129 234.445 278.25C256.398 287.372 280.744 289.009 303.721 282.908L296.523 256.053C279.456 260.574 261.375 259.352 245.072 252.574C228.768 245.796 215.149 233.84 206.318 218.552C197.486 203.263 193.933 185.493 196.206 167.984C198.48 150.475 206.454 134.201 218.897 121.675L199.269 102.027Z" fill="#E0E0E0"/>
<path d="M332.62 121.924C332.553 121.925 332.489 121.9 332.441 121.854C317.445 106.892 297.126 98.4893 275.943 98.4893C254.76 98.4893 234.441 106.892 219.445 121.854C219.423 121.878 219.396 121.897 219.366 121.91C219.336 121.923 219.304 121.93 219.271 121.93C219.238 121.93 219.206 121.923 219.176 121.91C219.146 121.897 219.119 121.878 219.097 121.854L199.089 101.857C199.066 101.835 199.047 101.808 199.034 101.778C199.021 101.748 199.014 101.716 199.014 101.683C199.014 101.65 199.021 101.618 199.034 101.588C199.047 101.558 199.066 101.531 199.089 101.508C219.478 81.1326 247.123 69.6866 275.948 69.6866C304.773 69.6866 332.418 81.1326 352.807 101.508C352.85 101.556 352.874 101.618 352.874 101.683C352.874 101.747 352.85 101.81 352.807 101.857L332.799 121.864C332.749 121.906 332.685 121.928 332.62 121.924ZM275.948 97.9994C297.185 97.962 317.568 106.355 332.62 121.336L352.268 101.678C331.987 81.5083 304.546 70.1865 275.943 70.1865C247.34 70.1865 219.899 81.5083 199.618 101.678L219.276 121.336C234.325 106.35 254.71 97.9525 275.948 97.9894V97.9994Z" fill="#E0E0E0"/>
<path d="M304.03 283.337C303.987 283.346 303.943 283.346 303.9 283.337C303.873 283.321 303.849 283.299 303.83 283.273C303.811 283.248 303.798 283.219 303.79 283.188L296.463 255.854C296.438 255.793 296.438 255.725 296.463 255.664C296.479 255.636 296.501 255.612 296.527 255.593C296.552 255.575 296.582 255.561 296.613 255.554C310.17 251.933 322.534 244.805 332.46 234.887C342.387 224.969 349.525 212.61 353.157 199.056C356.789 185.502 356.787 171.23 353.15 157.678C349.513 144.125 342.37 131.769 332.44 121.854C332.396 121.805 332.372 121.741 332.372 121.675C332.372 121.609 332.396 121.545 332.44 121.496L352.477 101.498C352.501 101.474 352.529 101.455 352.559 101.442C352.59 101.429 352.623 101.422 352.657 101.422C352.69 101.422 352.723 101.429 352.754 101.442C352.785 101.455 352.813 101.474 352.836 101.498C366.243 115.023 375.87 131.826 380.757 150.232C385.644 168.638 385.62 188.003 380.688 206.397C375.755 224.791 366.087 241.57 352.647 255.061C339.207 268.553 322.464 278.285 304.089 283.287L304.03 283.337ZM297.002 255.923L304.209 282.779C322.495 277.826 339.161 268.159 352.539 254.745C365.916 241.33 375.537 224.638 380.439 206.338C385.341 188.038 385.352 168.771 380.472 150.466C375.591 132.16 365.989 115.457 352.627 102.027L332.969 121.675C342.891 131.651 350.021 144.057 353.645 157.653C357.269 171.249 357.26 185.558 353.618 199.15C349.977 212.741 342.831 225.138 332.896 235.101C322.96 245.064 310.583 252.244 297.002 255.923Z" fill="#E0E0E0"/>
<path d="M222.007 335.713V353.467C236.99 353.466 251.553 348.521 263.438 339.4C275.324 330.278 283.867 317.489 287.743 303.017C291.619 288.545 290.611 273.198 284.875 259.357C279.14 245.516 268.997 233.954 256.021 226.466L247.148 241.847C256.737 247.384 264.232 255.929 268.47 266.158C272.708 276.388 273.452 287.729 270.587 298.425C267.723 309.12 261.409 318.572 252.626 325.313C243.842 332.055 233.08 335.711 222.007 335.713Z" fill="#E0E0E0"/>
<path d="M153.951 285.411C153.954 303.46 161.125 320.768 173.887 333.531C186.65 346.293 203.959 353.464 222.007 353.467V335.713C208.667 335.71 195.874 330.41 186.441 320.977C177.008 311.544 171.708 298.751 171.705 285.411H153.951Z" fill="#F0F0F0"/>
<path d="M153.951 285.411H171.705C171.703 276.581 174.026 267.906 178.439 260.259C182.853 252.612 189.202 246.261 196.849 241.846C204.495 237.431 213.169 235.106 221.999 235.107C230.828 235.107 239.502 237.432 247.148 241.847L256.02 226.466C223.692 207.804 181.744 219.059 163.072 251.387C157.102 261.733 153.956 273.466 153.951 285.411Z" fill="#EBEBEB"/>
<path d="M440.611 327.748H418.69V353.467H440.611V327.748Z" fill="#F5F5F5"/>
<path d="M467.008 335.503H445.086V353.467H467.008V335.503Z" fill="#E0E0E0"/>
<path d="M493.415 342.113H471.494V353.457H493.415V342.113Z" fill="#F0F0F0"/>
<path d="M358.349 335.503H336.428V353.467H358.349V335.503Z" fill="#F5F5F5"/>
<path d="M384.746 339.481H362.825V353.467H384.746V339.481Z" fill="#E0E0E0"/>
<path d="M411.153 323.332H389.232V353.467H411.153V323.332Z" fill="#F0F0F0"/>
<path d="M522.872 325.355H500.951V353.467H522.872V325.355Z" fill="#F5F5F5"/>
<path d="M549.269 335.503H527.348V353.467H549.269V335.503Z" fill="#E0E0E0"/>
<path d="M575.677 329.831H553.755V353.467H575.677V329.831Z" fill="#F0F0F0"/>
<path d="M319.471 44.3978C319.476 42.3584 320.289 40.4039 321.731 38.9618C323.173 37.5197 325.128 36.7072 327.167 36.702H566.884C568.923 36.7072 570.878 37.5197 572.32 38.9618C573.762 40.4039 574.574 42.3584 574.58 44.3978V69.17H319.471V44.3978Z" fill="#E0E0E0"/>
<path d="M375.874 52.941C375.874 54.0928 376.216 55.2188 376.856 56.1764C377.496 57.134 378.406 57.8801 379.47 58.3205C380.535 58.7608 381.706 58.8755 382.835 58.6501C383.965 58.4246 385.002 57.8692 385.816 57.054C386.63 56.2388 387.183 55.2006 387.407 54.0706C387.63 52.9407 387.514 51.7698 387.071 50.7062C386.629 49.6426 385.882 48.734 384.923 48.0955C383.964 47.457 382.838 47.1173 381.686 47.1193C380.143 47.1219 378.665 47.7364 377.576 48.8279C376.486 49.9194 375.874 51.3987 375.874 52.941Z" fill="#F5F5F5"/>
<path d="M361.071 58.7627C364.286 58.7627 366.892 56.1562 366.892 52.941C366.892 49.7257 364.286 47.1192 361.071 47.1192C357.855 47.1192 355.249 49.7257 355.249 52.941C355.249 56.1562 357.855 58.7627 361.071 58.7627Z" fill="#F5F5F5"/>
<path d="M340.455 58.7627C343.67 58.7627 346.277 56.1562 346.277 52.941C346.277 49.7257 343.67 47.1192 340.455 47.1192C337.24 47.1192 334.633 49.7257 334.633 52.941C334.633 56.1562 337.24 58.7627 340.455 58.7627Z" fill="#F5F5F5"/>
<path d="M566.884 236.006H327.167C325.128 236.001 323.173 235.188 321.731 233.746C320.289 232.304 319.476 230.35 319.471 228.31V69.17H574.58V228.31C574.574 230.35 573.762 232.304 572.32 233.746C570.878 235.188 568.923 236.001 566.884 236.006Z" fill="#F5F5F5"/>
<path d="M302.295 70.1569C302.303 68.1183 303.116 66.1654 304.558 64.7238C305.999 63.2823 307.952 62.469 309.991 62.4611H549.708C551.747 62.4664 553.702 63.2789 555.144 64.721C556.586 66.1631 557.398 68.1175 557.404 70.1569V94.9291H302.295V70.1569Z" fill="#FAFAFA"/>
<path d="M358.698 78.7001C358.698 79.8515 359.039 80.9771 359.679 81.9345C360.319 82.8918 361.228 83.638 362.292 84.0787C363.356 84.5193 364.526 84.6346 365.655 84.41C366.785 84.1853 367.822 83.6309 368.636 82.8167C369.45 82.0025 370.005 80.9652 370.23 79.8359C370.454 78.7066 370.339 77.536 369.898 76.4722C369.458 75.4084 368.711 74.4992 367.754 73.8595C366.797 73.2198 365.671 72.8784 364.52 72.8784C362.976 72.8784 361.495 73.4917 360.403 74.5835C359.311 75.6753 358.698 77.1561 358.698 78.7001Z" fill="#E0E0E0"/>
<path d="M338.083 78.7001C338.083 79.8515 338.424 80.9771 339.064 81.9345C339.704 82.8918 340.613 83.638 341.677 84.0787C342.74 84.5193 343.911 84.6346 345.04 84.41C346.169 84.1853 347.207 83.6309 348.021 82.8167C348.835 82.0025 349.39 80.9652 349.614 79.8359C349.839 78.7066 349.724 77.536 349.283 76.4722C348.842 75.4084 348.096 74.4992 347.139 73.8595C346.181 73.2198 345.056 72.8784 343.904 72.8784C342.36 72.8784 340.88 73.4917 339.788 74.5835C338.696 75.6753 338.083 77.1561 338.083 78.7001Z" fill="#E0E0E0"/>
<path d="M317.467 78.7001C317.467 79.852 317.809 80.9779 318.449 81.9355C319.089 82.8931 319.999 83.6393 321.064 84.0796C322.128 84.5199 323.299 84.6347 324.429 84.4092C325.558 84.1838 326.595 83.6283 327.409 82.8131C328.223 81.998 328.777 80.9597 329 79.8297C329.224 78.6998 329.107 77.5289 328.665 76.4653C328.223 75.4017 327.475 74.4932 326.516 73.8547C325.558 73.2162 324.431 72.8764 323.279 72.8784C321.737 72.881 320.259 73.4956 319.169 74.5871C318.079 75.6786 317.467 77.1578 317.467 78.7001Z" fill="#E0E0E0"/>
<path d="M549.708 261.765H309.991C307.951 261.76 305.997 260.947 304.555 259.505C303.113 258.063 302.3 256.109 302.295 254.069V94.9291H557.404V254.069C557.398 256.109 556.586 258.063 555.144 259.505C553.702 260.947 551.747 261.76 549.708 261.765Z" fill="#E0E0E0"/>
<path d="M552.24 52.014H194.593C192.056 52.0218 189.624 53.032 187.828 54.8244C186.032 56.6169 185.017 59.0464 185.003 61.5839V300.294C185.011 302.834 186.025 305.268 187.822 307.063C189.619 308.858 192.053 309.869 194.593 309.874H552.24C554.778 309.866 557.21 308.854 559.005 307.059C560.8 305.264 561.812 302.832 561.82 300.294V61.5839C561.807 59.0481 560.793 56.6201 558.999 54.8279C557.205 53.0358 554.776 52.0245 552.24 52.014Z" fill="#407BFF"/>
<path opacity="0.3" d="M552.24 52.014H194.593C192.056 52.0218 189.624 53.032 187.828 54.8244C186.032 56.6169 185.017 59.0464 185.003 61.5839V300.294C185.011 302.834 186.025 305.268 187.822 307.063C189.619 308.858 192.053 309.869 194.593 309.874H552.24C554.778 309.866 557.21 308.854 559.005 307.059C560.8 305.264 561.812 302.832 561.82 300.294V61.5839C561.807 59.0481 560.793 56.6201 558.999 54.8279C557.205 53.0358 554.776 52.0245 552.24 52.014Z" fill="#F5F5F5"/>
<path d="M257.924 70.7451H203.745C202.905 70.7787 202.067 70.6423 201.281 70.344C200.495 70.0458 199.778 69.5919 199.172 69.0096C198.566 68.4273 198.083 67.7285 197.754 66.9553C197.425 66.182 197.255 65.3502 197.255 64.5097C197.255 63.6692 197.425 62.8373 197.754 62.0641C198.083 61.2908 198.566 60.5921 199.172 60.0097C199.778 59.4274 200.495 58.9735 201.281 58.6753C202.067 58.3771 202.905 58.2407 203.745 58.2743H257.924C258.764 58.2407 259.602 58.3771 260.388 58.6753C261.174 58.9735 261.891 59.4274 262.497 60.0097C263.103 60.5921 263.586 61.2908 263.915 62.0641C264.244 62.8373 264.414 63.6692 264.414 64.5097C264.414 65.3502 264.244 66.182 263.915 66.9553C263.586 67.7285 263.103 68.4273 262.497 69.0096C261.891 69.5919 261.174 70.0458 260.388 70.344C259.602 70.6423 258.764 70.7787 257.924 70.7451ZM203.745 59.2711C203.038 59.2403 202.331 59.3529 201.669 59.6023C201.007 59.8516 200.401 60.2325 199.89 60.722C199.379 61.2115 198.972 61.7994 198.694 62.4504C198.416 63.1013 198.273 63.8018 198.273 64.5097C198.273 65.2175 198.416 65.918 198.694 66.569C198.972 67.2199 199.379 67.8079 199.89 68.2974C200.401 68.7868 201.007 69.1677 201.669 69.4171C202.331 69.6664 203.038 69.7791 203.745 69.7482H257.924C258.632 69.7791 259.338 69.6664 260 69.4171C260.663 69.1677 261.268 68.7868 261.779 68.2974C262.29 67.8079 262.697 67.2199 262.975 66.569C263.253 65.918 263.397 65.2175 263.397 64.5097C263.397 63.8018 263.253 63.1013 262.975 62.4504C262.697 61.7994 262.29 61.2115 261.779 60.722C261.268 60.2325 260.663 59.8516 260 59.6023C259.338 59.3529 258.632 59.2403 257.924 59.2711H203.745Z" fill="#FAFAFA"/>
<path d="M284.162 70.7451H277.712C276.102 70.6807 274.579 69.9956 273.462 68.8333C272.345 67.6709 271.721 66.1216 271.721 64.5097C271.721 62.8978 272.345 61.3485 273.462 60.1861C274.579 59.0238 276.102 58.3387 277.712 58.2743H284.192C285.803 58.3387 287.326 59.0238 288.443 60.1861C289.559 61.3485 290.183 62.8978 290.183 64.5097C290.183 66.1216 289.559 67.6709 288.443 68.8333C287.326 69.9956 285.803 70.6807 284.192 70.7451H284.162ZM277.712 59.2712C276.363 59.3301 275.088 59.9077 274.153 60.8837C273.219 61.8597 272.697 63.1586 272.697 64.5097C272.697 65.8608 273.219 67.1598 274.153 68.1357C275.088 69.1117 276.363 69.6894 277.712 69.7483H284.192C285.542 69.6894 286.817 69.1117 287.751 68.1357C288.685 67.1598 289.207 65.8608 289.207 64.5097C289.207 63.1586 288.685 61.8597 287.751 60.8837C286.817 59.9077 285.542 59.3301 284.192 59.2712H277.712Z" fill="#FAFAFA"/>
<path d="M561.82 76.7861H185.003V291.691H561.82V76.7861Z" fill="#407BFF"/>
<path opacity="0.8" d="M561.82 76.7861H185.003V291.691H561.82V76.7861Z" fill="#F5F5F5"/>
<path opacity="0.9" d="M255.023 259.552C250.836 259.559 246.652 259.323 242.493 258.844C218.568 256.103 197.534 244.699 184.804 227.562C184.764 227.51 184.747 227.443 184.757 227.378C184.766 227.312 184.801 227.253 184.854 227.213C184.907 227.174 184.973 227.157 185.039 227.166C185.104 227.175 185.163 227.21 185.203 227.263C197.843 244.29 218.747 255.624 242.543 258.356C261.573 260.539 281.999 257.678 306.821 249.384C314.158 246.922 321.584 244.12 328.752 241.409C351.75 232.706 375.525 223.705 400.526 224.691C412.489 225.16 424.451 227.941 436.015 230.673C441.717 231.998 447.608 233.364 453.43 234.441C475.451 238.518 492.378 236.843 505.178 229.327C508.767 227.108 512.201 224.647 515.455 221.96C519.991 218.401 524.666 214.713 530.039 212.41C535.188 210.301 540.762 209.441 546.307 209.9C551.851 210.359 557.208 212.124 561.939 215.052C561.967 215.068 561.992 215.09 562.012 215.116C562.031 215.142 562.045 215.172 562.052 215.204C562.06 215.236 562.061 215.269 562.055 215.301C562.049 215.333 562.037 215.363 562.019 215.391C562.003 215.419 561.981 215.443 561.955 215.463C561.928 215.482 561.899 215.496 561.867 215.504C561.835 215.511 561.802 215.512 561.77 215.506C561.738 215.501 561.707 215.488 561.68 215.47C557.014 212.584 551.73 210.844 546.262 210.392C540.794 209.94 535.296 210.788 530.219 212.869C524.916 215.141 520.25 218.85 515.754 222.359C512.48 225.055 509.03 227.529 505.427 229.765C492.517 237.342 475.471 239.026 453.331 234.929C447.499 233.853 441.597 232.477 435.895 231.151C424.352 228.47 412.409 225.688 400.496 225.23C375.635 224.233 351.889 233.205 328.931 241.917C321.744 244.639 314.307 247.45 307 249.892C287.432 256.372 270.595 259.552 255.023 259.552Z" fill="#FAFAFA"/>
<path d="M499.705 174.778C481.911 174.778 462.731 170.382 439.833 161.081C432.486 158.091 425.049 154.761 417.902 151.531C394.974 141.204 371.199 130.527 346.337 129.73C334.374 129.351 322.492 131.275 310.948 133.139C305.236 134.056 299.334 135.013 293.503 135.671C271.362 138.193 254.326 135.282 241.416 126.789C237.807 124.297 234.357 121.58 231.089 118.655C226.543 114.817 221.888 110.829 216.574 108.128C211.681 105.681 206.275 104.437 200.805 104.5C195.335 104.562 189.959 105.929 185.123 108.487C185.064 108.516 184.997 108.522 184.934 108.503C184.871 108.485 184.818 108.443 184.784 108.387C184.768 108.358 184.758 108.326 184.755 108.294C184.751 108.261 184.754 108.228 184.764 108.197C184.773 108.165 184.788 108.136 184.809 108.11C184.83 108.085 184.855 108.064 184.884 108.048C189.79 105.46 195.242 104.077 200.789 104.013C206.336 103.949 211.819 105.205 216.784 107.679C222.147 110.361 226.832 114.378 231.358 118.276C234.609 121.188 238.042 123.892 241.636 126.37C254.435 134.804 271.372 137.685 293.393 135.173C299.215 134.515 305.106 133.568 310.808 132.641C322.372 130.777 334.334 128.853 346.287 129.231C371.258 130.039 395.044 140.725 418.061 151.073C425.249 154.303 432.675 157.642 439.992 160.623C464.814 170.701 485.22 175.008 504.27 174.18C528.056 173.183 548.95 163.314 561.59 147.195C561.613 147.171 561.64 147.152 561.67 147.139C561.7 147.126 561.732 147.119 561.765 147.119C561.798 147.119 561.83 147.126 561.86 147.139C561.89 147.152 561.917 147.171 561.939 147.195C561.966 147.215 561.988 147.239 562.004 147.267C562.021 147.296 562.032 147.327 562.037 147.359C562.041 147.391 562.039 147.424 562.031 147.456C562.023 147.488 562.009 147.518 561.989 147.544C549.259 163.773 528.225 173.682 504.29 174.718C502.795 174.748 501.25 174.778 499.705 174.778Z" fill="#407BFF"/>
<path opacity="0.7" d="M499.705 174.778C481.911 174.778 462.731 170.382 439.833 161.081C432.486 158.091 425.049 154.761 417.902 151.531C394.974 141.204 371.199 130.527 346.337 129.73C334.374 129.351 322.492 131.275 310.948 133.139C305.236 134.056 299.334 135.013 293.503 135.671C271.362 138.193 254.326 135.282 241.416 126.789C237.807 124.297 234.357 121.58 231.089 118.655C226.543 114.817 221.888 110.829 216.574 108.128C211.681 105.681 206.275 104.437 200.805 104.5C195.335 104.562 189.959 105.929 185.123 108.487C185.064 108.516 184.997 108.522 184.934 108.503C184.871 108.485 184.818 108.443 184.784 108.387C184.768 108.358 184.758 108.326 184.755 108.294C184.751 108.261 184.754 108.228 184.764 108.197C184.773 108.165 184.788 108.136 184.809 108.11C184.83 108.085 184.855 108.064 184.884 108.048C189.79 105.46 195.242 104.077 200.789 104.013C206.336 103.949 211.819 105.205 216.784 107.679C222.147 110.361 226.832 114.378 231.358 118.276C234.609 121.188 238.042 123.892 241.636 126.37C254.435 134.804 271.372 137.685 293.393 135.173C299.215 134.515 305.106 133.568 310.808 132.641C322.372 130.777 334.334 128.853 346.287 129.231C371.258 130.039 395.044 140.725 418.061 151.073C425.249 154.303 432.675 157.642 439.992 160.623C464.814 170.701 485.22 175.008 504.27 174.18C528.056 173.183 548.95 163.314 561.59 147.195C561.613 147.171 561.64 147.152 561.67 147.139C561.7 147.126 561.732 147.119 561.765 147.119C561.798 147.119 561.83 147.126 561.86 147.139C561.89 147.152 561.917 147.171 561.939 147.195C561.966 147.215 561.988 147.239 562.004 147.267C562.021 147.296 562.032 147.327 562.037 147.359C562.041 147.391 562.039 147.424 562.031 147.456C562.023 147.488 562.009 147.518 561.989 147.544C549.259 163.773 528.225 173.682 504.29 174.718C502.795 174.748 501.25 174.778 499.705 174.778Z" fill="#F5F5F5"/>
<path d="M532.382 284.972H214.441C208.421 284.964 202.649 282.569 198.392 278.312C194.135 274.055 191.74 268.284 191.732 262.263V106.224C191.74 100.203 194.135 94.4319 198.392 90.1749C202.649 85.9179 208.421 83.5229 214.441 83.515H532.382C538.402 83.5229 544.174 85.9179 548.431 90.1749C552.688 94.4319 555.083 100.203 555.091 106.224V262.263C555.083 268.284 552.688 274.055 548.431 278.312C544.174 282.569 538.402 284.964 532.382 284.972ZM214.441 84.0134C208.553 84.0213 202.908 86.3639 198.745 90.5274C194.581 94.6909 192.239 100.336 192.231 106.224V262.263C192.239 268.152 194.581 273.796 198.745 277.96C202.908 282.123 208.553 284.466 214.441 284.474H532.382C538.27 284.466 543.915 282.123 548.078 277.96C552.242 273.796 554.585 268.152 554.592 262.263V106.224C554.585 100.336 552.242 94.6909 548.078 90.5274C543.915 86.3639 538.27 84.0213 532.382 84.0134H214.441Z" fill="#FAFAFA"/>
<path d="M231.258 209.031H212.746V291.701H231.258V209.031Z" fill="#FAFAFA"/>
<path d="M258.792 192.154H240.28V291.691H258.792V192.154Z" fill="#FAFAFA"/>
<path d="M286.315 175.586H267.803V291.701H286.315V175.586Z" fill="#FAFAFA"/>
<path d="M313.849 155.27H295.337V291.691H313.849V155.27Z" fill="#FAFAFA"/>
<path d="M341.372 184.239H322.86V291.691H341.372V184.239Z" fill="#FAFAFA"/>
<path d="M368.906 143.975H350.394V291.701H368.906V143.975Z" fill="#407BFF"/>
<path opacity="0.2" d="M368.906 143.975H350.394V291.701H368.906V143.975Z" fill="white"/>
<path d="M362.346 151.601C361.171 154.837 359.008 157.621 356.164 159.56C353.319 161.499 349.938 162.495 346.496 162.407V137.884H361.23C362.399 139.953 363.105 142.251 363.298 144.62C363.491 146.988 363.166 149.37 362.346 151.601Z" fill="#407BFF"/>
<path opacity="0.2" d="M362.346 151.601C361.171 154.837 359.008 157.621 356.164 159.56C353.319 161.499 349.938 162.495 346.496 162.407V137.884H361.23C362.399 139.953 363.105 142.251 363.298 144.62C363.491 146.988 363.166 149.37 362.346 151.601Z" fill="white"/>
<path d="M396.429 194.257H377.917V291.691H396.429V194.257Z" fill="#FAFAFA"/>
<path d="M423.963 161.58H405.451V291.701H423.963V161.58Z" fill="#FAFAFA"/>
<path d="M451.486 259.143H432.974V291.691H451.486V259.143Z" fill="#407BFF"/>
<path opacity="0.3" d="M451.486 259.143H432.974V291.691H451.486V259.143Z" fill="black"/>
<path d="M479.02 153.405H460.508V291.701H479.02V153.405Z" fill="#FAFAFA"/>
<path d="M506.543 115.066H488.032V291.701H506.543V115.066Z" fill="#407BFF"/>
<path opacity="0.2" d="M506.543 115.066H488.032V291.701H506.543V115.066Z" fill="white"/>
<path d="M534.077 196.909H515.565V291.691H534.077V196.909Z" fill="#FAFAFA"/>
<path d="M128.512 282.281H67.2667V554.794H128.512V282.281Z" fill="#407BFF"/>
<path opacity="0.7" d="M128.512 282.281H67.2667V554.794H128.512V282.281Z" fill="#FAFAFA"/>
<path d="M222.21 192.205H160.965V554.781H222.21V192.205Z" fill="#407BFF"/>
<path opacity="0.1" d="M222.21 192.205H160.965V554.781H222.21V192.205Z" fill="black"/>
<path d="M315.921 282.281H254.675V554.794H315.921V282.281Z" fill="#407BFF"/>
<path opacity="0.4" d="M315.921 282.281H254.675V554.794H315.921V282.281Z" fill="black"/>
<path d="M106.783 282.281H45.538V554.794H106.783V282.281Z" fill="#407BFF"/>
<path opacity="0.8" d="M106.783 282.281H45.538V554.794H106.783V282.281Z" fill="#FAFAFA"/>
<path d="M200.494 192.205H139.249V554.781H200.494V192.205Z" fill="#407BFF"/>
<path opacity="0.2" d="M200.494 192.205H139.249V554.781H200.494V192.205Z" fill="#FAFAFA"/>
<path d="M294.192 282.281H232.947V554.794H294.192V282.281Z" fill="#407BFF"/>
<path opacity="0.2" d="M294.192 282.281H232.947V554.794H294.192V282.281Z" fill="black"/>
<path d="M566.244 296.432C565.538 298.524 564.859 300.326 564.11 302.224C563.362 304.123 562.586 305.952 561.782 307.768C560.161 311.468 558.359 315.085 556.405 318.66C554.426 322.289 552.232 325.797 549.836 329.165C547.325 332.728 544.445 336.017 541.244 338.977C540.385 339.739 539.512 340.501 538.542 341.208C538.029 341.582 537.655 341.901 537.031 342.303C536.407 342.705 535.812 343.065 535.16 343.411C532.477 344.832 529.479 345.552 526.443 345.504C523.663 345.447 520.923 344.825 518.392 343.675C516.204 342.675 514.143 341.419 512.252 339.933C508.892 337.231 505.901 334.1 503.355 330.62C502.094 328.985 500.972 327.253 499.891 325.52C498.81 323.788 497.84 322.069 496.884 320.115L503.328 316.11C504.436 317.399 505.711 318.882 506.958 320.157C508.206 321.432 509.522 322.749 510.825 323.982C513.301 326.36 516.028 328.46 518.96 330.246C521.731 331.853 524.503 332.657 526.18 332.38C527.016 332.257 527.812 331.944 528.508 331.465L529.09 331.022C529.257 330.897 529.603 330.565 529.866 330.357C530.421 329.886 530.975 329.331 531.515 328.777C536.118 323.578 539.971 317.762 542.962 311.496C544.639 308.267 546.164 304.927 547.66 301.559C548.395 299.882 549.115 298.178 549.795 296.473C550.474 294.769 551.18 292.995 551.762 291.443L566.244 296.432Z" fill="#E4897B"/>
<path d="M570.402 291.47C572.564 300.88 551.929 324.938 551.929 324.938L533.373 311.44C537.482 303.645 542.416 296.314 548.09 289.572C556.544 279.912 568.018 281.146 570.402 291.47Z" fill="#407BFF"/>
<path opacity="0.7" d="M570.402 291.47C572.564 300.88 551.929 324.938 551.929 324.938L533.373 311.44C537.482 303.645 542.416 296.314 548.09 289.572C556.544 279.912 568.018 281.146 570.402 291.47Z" fill="white"/>
<path d="M615.566 290.071C611.91 300.754 609.057 311.696 607.029 322.804C605.574 330.551 604.521 337.965 603.731 344.7C601.874 360.485 601.445 372.583 600.71 376.643L547.189 369.437C543.558 311.648 559.44 283.017 559.44 283.017C563.744 282.496 568.076 282.242 572.411 282.254C573.326 282.254 574.255 282.254 575.183 282.324C582.821 282.906 590.419 283.929 597.938 285.386C599.324 285.65 600.807 285.955 602.207 286.273C609.344 287.881 615.566 290.071 615.566 290.071Z" fill="#407BFF"/>
<path opacity="0.7" d="M615.566 290.071C611.91 300.754 609.057 311.696 607.029 322.804C605.574 330.551 604.521 337.965 603.731 344.7C601.874 360.485 601.445 372.583 600.71 376.643L547.189 369.437C543.558 311.648 559.44 283.017 559.44 283.017C563.744 282.496 568.076 282.242 572.411 282.254C573.326 282.254 574.255 282.254 575.183 282.324C582.821 282.906 590.419 283.929 597.938 285.386C599.324 285.65 600.807 285.955 602.207 286.273C609.344 287.881 615.566 290.071 615.566 290.071Z" fill="white"/>
<path d="M607.029 322.804C605.574 330.551 604.521 337.965 603.731 344.7L596.497 327.987L607.029 322.804Z" fill="#407BFF"/>
<path opacity="0.5" d="M607.029 322.804C605.574 330.551 604.521 337.965 603.731 344.7L596.497 327.987L607.029 322.804Z" fill="white"/>
<path d="M520.512 594.565L510.977 591.253L516.091 568.276L525.626 571.588L520.512 594.565Z" fill="#E4897B"/>
<path d="M612.254 599.984H602.165L594.294 576.591H604.396L612.254 599.984Z" fill="#E4897B"/>
<path d="M516.091 568.29L513.444 580.125L522.993 583.437L525.626 571.588L516.091 568.29Z" fill="#CE6F64"/>
<path d="M604.396 576.605H594.294L598.354 588.662H608.457L604.396 576.605Z" fill="#CE6F64"/>
<path d="M510.631 576.688L526.804 582.232C526.804 582.232 542.616 519.869 547.591 488.785C549.088 479.334 552.469 466.251 556.544 452.282C561.671 434.682 567.921 415.696 572.993 400.84C578.357 385.194 582.375 374.135 582.375 374.135L547.189 369.396C547.189 369.396 520.387 451.575 517.366 482.244C514.206 514.173 510.631 576.688 510.631 576.688Z" fill="#407BFF"/>
<path opacity="0.6" d="M510.631 576.688L526.804 582.232C526.804 582.232 542.616 519.869 547.591 488.785C549.088 479.334 552.469 466.251 556.544 452.282C561.671 434.682 567.921 415.696 572.993 400.84C578.357 385.194 582.375 374.135 582.375 374.135L547.189 369.396C547.189 369.396 520.387 451.575 517.366 482.244C514.206 514.173 510.631 576.688 510.631 576.688Z" fill="black"/>
<path opacity="0.4" d="M556.544 452.324C561.671 434.724 567.921 415.738 572.993 400.882L569.848 392.747C560.41 402.6 555.962 434.696 556.544 452.324Z" fill="black"/>
<path d="M566.161 372.001C566.161 372.001 564.429 458.505 566.799 487.995C569.404 520.285 593.601 586.389 593.601 586.389H612.102C612.102 586.389 599.754 525.953 595.971 494.592C591.661 458.865 600.696 376.713 600.696 376.713L566.161 372.001Z" fill="#407BFF"/>
<path opacity="0.6" d="M566.161 372.001C566.161 372.001 564.429 458.505 566.799 487.995C569.404 520.285 593.601 586.389 593.601 586.389H612.102C612.102 586.389 599.754 525.953 595.971 494.592C591.661 458.865 600.696 376.713 600.696 376.713L566.161 372.001Z" fill="black"/>
<path d="M600.807 598.806H613.127C613.327 598.808 613.522 598.877 613.678 599.003C613.834 599.129 613.942 599.303 613.986 599.499L615.982 608.479C616.028 608.698 616.024 608.924 615.97 609.141C615.917 609.357 615.815 609.559 615.672 609.731C615.53 609.903 615.35 610.04 615.147 610.133C614.944 610.226 614.722 610.272 614.499 610.267C610.536 610.198 607.653 609.976 602.664 609.976C599.587 609.976 590.33 610.295 586.103 610.295C581.877 610.295 581.308 606.137 583.041 605.721C590.815 604.017 596.677 601.675 599.172 599.43C599.623 599.03 600.204 598.808 600.807 598.806Z" fill="#263238"/>
<path d="M511.421 590.172L521.842 593.776C522.033 593.843 522.196 593.973 522.304 594.143C522.412 594.314 522.459 594.517 522.438 594.718L521.385 603.851C521.361 604.072 521.286 604.286 521.168 604.475C521.049 604.663 520.888 604.823 520.698 604.94C520.509 605.058 520.295 605.131 520.073 605.153C519.851 605.176 519.627 605.147 519.417 605.07C515.689 603.684 510.326 601.606 505.559 599.97C500.015 598.058 495.165 596.714 488.679 594.427C484.771 593.041 485.049 588.731 486.822 588.884C494.846 589.84 500.999 591.766 508.829 590.02C509.691 589.833 510.587 589.886 511.421 590.172Z" fill="#263238"/>
<path d="M503.355 320.143L507.43 309.888L494.542 309.445C493.703 311.339 493.492 313.452 493.941 315.474C494.39 317.497 495.475 319.322 497.036 320.684L503.355 320.143Z" fill="#E4897B"/>
<path d="M508.829 302.987L498.727 304.941L494.542 309.445L507.43 309.888L508.829 302.987Z" fill="#E4897B"/>
<path d="M572.73 324.356C570.665 324.347 568.682 323.548 567.187 322.125C566.058 320.986 565.189 319.615 564.641 318.108C564.094 316.601 563.879 314.992 564.013 313.394C564.304 306.881 569.072 301.074 574.615 300.464C575.801 300.322 577.004 300.442 578.14 300.815C579.275 301.189 580.314 301.807 581.184 302.626C582.313 303.765 583.181 305.136 583.729 306.643C584.277 308.15 584.491 309.759 584.357 311.357C584.066 317.884 579.299 323.691 573.756 324.301C573.415 324.342 573.073 324.36 572.73 324.356ZM575.502 301.795H574.698C569.806 302.335 565.593 307.56 565.316 313.422C565.196 314.822 565.382 316.231 565.861 317.551C566.339 318.872 567.099 320.073 568.088 321.072C568.81 321.758 569.676 322.277 570.622 322.591C571.568 322.905 572.572 323.006 573.562 322.887C578.454 322.333 582.666 317.122 582.944 311.26C583.059 309.858 582.871 308.449 582.392 307.126C581.914 305.804 581.157 304.6 580.172 303.596C578.915 302.404 577.248 301.739 575.516 301.739L575.502 301.795Z" fill="#FAFAFA"/>
<path d="M599.144 259.458C596.733 266.595 593.49 279.815 597.952 285.387C595.382 287.436 592.4 288.908 589.211 289.705C586.021 290.501 582.697 290.602 579.465 290.001C573.187 289.017 573.465 284.569 575.197 282.324C583.623 281.479 584.233 275.395 583.512 269.505L599.144 259.458Z" fill="#E4897B"/>
<path d="M592.797 263.56L583.581 269.505C583.75 270.884 583.801 272.275 583.733 273.662C586.921 273.662 591.66 270.78 592.436 267.565C592.803 266.263 592.926 264.905 592.797 263.56Z" fill="#CE6F64"/>
<path d="M580.616 230.854C572.799 230.217 570.083 249.05 574.961 252.667C579.839 256.284 595.264 232.046 580.616 230.854Z" fill="#263238"/>
<path d="M601.5 248.565C599.56 258.391 598.922 264.253 593.185 268.66C584.621 275.298 572.993 269.117 571.968 258.959C571.039 249.757 574.379 235.233 584.607 232.628C586.854 232.032 589.217 232.019 591.471 232.59C593.725 233.162 595.796 234.3 597.488 235.896C599.179 237.492 600.436 239.493 601.138 241.71C601.84 243.927 601.965 246.286 601.5 248.565Z" fill="#E4897B"/>
<path d="M599.504 258.183C594.654 261.204 589.997 234.36 603.44 234.984C619.918 235.76 609.801 251.849 599.504 258.183Z" fill="#263238"/>
<path d="M603.052 239.765C596.594 236.176 586.949 240.68 580.338 237.534C573.728 234.388 562.392 237.146 567.713 227.514C569.321 230.286 576.222 230.452 579.812 226.516C583.401 222.581 588.127 221.444 590.898 225.754C593.67 230.064 601.361 221.444 607.916 226.988C613.598 231.741 612.795 245.184 603.052 239.765Z" fill="#263238"/>
<path d="M608.36 237.492C608.36 237.492 614.208 237.298 615.289 234.263C615.358 237.257 613.903 239.224 608.36 237.492Z" fill="#263238"/>
<path d="M604.507 260.164C602.888 262.096 600.572 263.311 598.063 263.546C594.737 263.809 593.698 260.691 595.153 257.878C596.455 255.342 599.768 252.154 602.844 253.194C603.516 253.431 604.117 253.834 604.593 254.363C605.07 254.893 605.406 255.534 605.571 256.227C605.737 256.92 605.726 257.643 605.54 258.331C605.354 259.019 604.999 259.649 604.507 260.164Z" fill="#E4897B"/>
<path d="M591.383 586.722H613.169V580.208L588.82 579.793L591.383 586.722Z" fill="#407BFF"/>
<path d="M508.483 576.356L527.732 583.022L529.88 576.813L508.469 569.025L508.483 576.356Z" fill="#407BFF"/>
<path d="M586.064 249.29C586.173 248.486 585.83 247.776 585.299 247.705C584.768 247.633 584.25 248.227 584.141 249.031C584.033 249.835 584.376 250.545 584.907 250.616C585.438 250.688 585.956 250.094 586.064 249.29Z" fill="#263238"/>
<path d="M576.971 248.08C576.86 248.884 576.347 249.466 575.821 249.466C575.294 249.466 574.948 248.69 575.058 247.872C575.169 247.054 575.682 246.486 576.209 246.486C576.735 246.486 577.082 247.276 576.971 248.08Z" fill="#263238"/>
<path d="M579.812 248.87C578.519 251.209 576.91 253.359 575.031 255.259C575.528 255.726 576.123 256.079 576.771 256.292C577.42 256.505 578.108 256.573 578.786 256.492L579.812 248.87Z" fill="#DE5753"/>
<path d="M581.904 259.111C581.547 259.115 581.191 259.092 580.837 259.042C580.776 259.032 580.721 258.999 580.682 258.95C580.644 258.902 580.625 258.84 580.629 258.779C580.64 258.715 580.674 258.657 580.726 258.619C580.778 258.58 580.842 258.563 580.907 258.571C581.907 258.726 582.93 258.644 583.893 258.331C584.856 258.018 585.732 257.483 586.45 256.769C586.496 256.724 586.558 256.699 586.623 256.699C586.688 256.699 586.75 256.724 586.796 256.769C586.84 256.813 586.865 256.873 586.865 256.935C586.865 256.998 586.84 257.058 586.796 257.102C586.156 257.746 585.394 258.256 584.554 258.601C583.713 258.946 582.813 259.12 581.904 259.111Z" fill="#263238"/>
<path d="M589.304 246.736C589.22 246.737 589.138 246.716 589.065 246.674C588.991 246.633 588.931 246.573 588.889 246.5C588.613 245.975 588.219 245.522 587.738 245.176C587.257 244.829 586.702 244.6 586.117 244.504C586.047 244.51 585.977 244.501 585.911 244.477C585.846 244.453 585.786 244.415 585.736 244.365C585.687 244.316 585.648 244.257 585.624 244.191C585.599 244.126 585.589 244.056 585.594 243.986C585.599 243.916 585.619 243.848 585.653 243.787C585.687 243.726 585.733 243.673 585.79 243.631C585.846 243.589 585.91 243.56 585.979 243.546C586.047 243.532 586.118 243.533 586.186 243.548C586.938 243.649 587.655 243.927 588.279 244.358C588.902 244.789 589.415 245.362 589.776 246.029C589.807 246.083 589.828 246.143 589.836 246.206C589.844 246.268 589.84 246.332 589.823 246.393C589.806 246.453 589.778 246.51 589.738 246.559C589.699 246.609 589.651 246.65 589.595 246.68C589.507 246.73 589.405 246.75 589.304 246.736Z" fill="#263238"/>
<path d="M573.465 244.407C573.378 244.428 573.288 244.428 573.201 244.407C573.096 244.337 573.022 244.228 572.996 244.103C572.97 243.979 572.994 243.849 573.063 243.742C573.469 243.099 574.023 242.563 574.679 242.177C575.335 241.792 576.073 241.568 576.832 241.525C576.958 241.529 577.078 241.581 577.166 241.672C577.254 241.762 577.303 241.884 577.303 242.01C577.303 242.135 577.254 242.255 577.165 242.343C577.077 242.432 576.957 242.481 576.832 242.481C576.234 242.524 575.654 242.708 575.14 243.019C574.627 243.33 574.195 243.758 573.88 244.269C573.827 244.323 573.761 244.364 573.689 244.388C573.617 244.412 573.54 244.419 573.465 244.407Z" fill="#263238"/>
<path d="M597.481 600.58C596.789 600.632 596.099 600.446 595.527 600.053C595.345 599.902 595.205 599.707 595.12 599.486C595.035 599.265 595.008 599.026 595.042 598.792C595.041 598.653 595.077 598.516 595.148 598.397C595.219 598.277 595.321 598.179 595.444 598.113C596.566 597.559 599.823 599.499 600.183 599.776C600.222 599.801 600.252 599.837 600.272 599.878C600.292 599.92 600.299 599.966 600.294 600.012C600.289 600.059 600.269 600.104 600.236 600.139C600.204 600.174 600.161 600.197 600.114 600.206C599.255 600.436 598.371 600.561 597.481 600.58ZM595.97 598.487C595.87 598.464 595.766 598.464 595.666 598.487C595.596 598.487 595.527 598.584 595.513 598.764C595.49 598.925 595.507 599.089 595.563 599.241C595.619 599.393 595.711 599.53 595.832 599.638C596.963 600.148 598.245 600.212 599.421 599.818C598.367 599.157 597.195 598.705 595.97 598.487Z" fill="#407BFF"/>
<path d="M600.059 600.22H599.948C598.908 599.652 596.885 597.448 597.093 596.312C597.128 596.136 597.224 595.977 597.363 595.863C597.501 595.75 597.676 595.688 597.855 595.688C598.038 595.661 598.224 595.675 598.402 595.728C598.579 595.78 598.742 595.871 598.881 595.993C600.045 596.949 600.267 599.859 600.267 599.984C600.274 600.026 600.268 600.07 600.251 600.109C600.234 600.149 600.205 600.182 600.17 600.206C600.134 600.218 600.096 600.223 600.059 600.22ZM598.022 596.062H597.911C597.606 596.062 597.578 596.242 597.564 596.298C597.439 596.963 598.728 598.64 599.768 599.43C599.691 598.282 599.277 597.182 598.576 596.27C598.415 596.155 598.219 596.101 598.022 596.118V596.062Z" fill="#407BFF"/>
<path d="M510.035 591.17C508.4 590.935 505.531 590.366 504.81 589.078C504.713 588.884 504.662 588.671 504.662 588.454C504.662 588.237 504.713 588.024 504.81 587.83C504.856 587.709 504.933 587.602 505.032 587.52C505.132 587.437 505.251 587.382 505.379 587.359C506.764 587.096 509.924 590.394 510.284 590.768C510.311 590.807 510.325 590.853 510.325 590.9C510.325 590.947 510.311 590.993 510.284 591.032C510.262 591.077 510.226 591.115 510.182 591.14C510.137 591.165 510.086 591.175 510.035 591.17ZM505.476 587.83H505.379C505.329 587.843 505.284 587.868 505.245 587.901C505.207 587.935 505.177 587.977 505.157 588.024C505.089 588.15 505.053 588.29 505.053 588.433C505.053 588.576 505.089 588.716 505.157 588.842C505.559 589.577 507.097 590.228 509.314 590.588C508.039 589.341 506.279 587.83 505.476 587.83Z" fill="#407BFF"/>
<path d="M510.035 591.17C509.973 591.17 509.913 591.145 509.869 591.101C508.899 590.186 507.333 587.331 507.873 586.32C507.998 586.07 508.289 585.821 508.94 585.973C509.171 586.027 509.389 586.127 509.579 586.267C509.77 586.408 509.93 586.586 510.049 586.791C510.55 588.121 510.623 589.575 510.257 590.948C510.247 590.987 510.228 591.022 510.202 591.051C510.175 591.08 510.142 591.102 510.104 591.115L510.035 591.17ZM508.58 586.403C508.523 586.395 508.465 586.404 508.414 586.428C508.362 586.453 508.318 586.492 508.289 586.542C507.97 587.151 508.954 589.313 509.883 590.422C510.154 589.297 510.071 588.117 509.647 587.04C509.559 586.891 509.441 586.76 509.3 586.658C509.159 586.555 508.999 586.483 508.829 586.445L508.58 586.403Z" fill="#407BFF"/>
<path d="M621.165 301.822C620.985 303.874 620.777 305.689 620.5 307.574C620.223 309.458 619.932 311.315 619.613 313.117C618.948 316.845 618.158 320.545 617.201 324.204C616.245 327.862 615.109 331.549 613.792 335.207L612.767 337.979L611.603 340.75C611.242 341.651 610.785 342.552 610.342 343.522L609.69 344.908L609.524 345.254L609.233 345.795C609.023 346.186 608.791 346.565 608.54 346.931C606.998 349.08 605.06 350.914 602.83 352.336C601.056 353.496 599.203 354.533 597.287 355.44C593.783 357.094 590.171 358.511 586.478 359.681C579.347 361.96 572.049 363.679 564.651 364.822L562.738 357.491C569.307 354.858 575.959 352.031 582.251 349.038C585.321 347.592 588.314 345.987 591.217 344.229C592.523 343.443 593.773 342.568 594.959 341.61C595.758 341.012 596.444 340.275 596.982 339.434L597.093 339.143L597.536 338.007C597.841 337.244 598.146 336.496 598.396 335.692L599.199 333.336L599.934 330.925C600.862 327.682 601.708 324.37 602.428 320.989C603.149 317.607 603.814 314.198 604.369 310.775C604.923 307.352 605.45 303.846 605.879 300.575L621.165 301.822Z" fill="#E4897B"/>
<path d="M623.063 295.794C628.718 303.624 622.19 327.765 622.19 327.765L595.693 328.611C597.012 319.231 599.041 309.966 601.763 300.894C605.976 287.95 616.134 286.301 623.063 295.794Z" fill="#407BFF"/>
<path opacity="0.7" d="M623.063 295.794C628.718 303.624 622.19 327.765 622.19 327.765L595.693 328.611C597.012 319.231 599.041 309.966 601.763 300.894C605.976 287.95 616.134 286.301 623.063 295.794Z" fill="white"/>
<path d="M427.453 203.969C408.71 195.841 388.501 191.634 368.07 191.607C296.007 191.607 239.008 244.019 231.164 312.798L240.103 308.488L375.914 337.12L427.453 203.969Z" fill="#407BFF"/>
<path opacity="0.4" d="M427.453 203.969C408.71 195.841 388.501 191.634 368.07 191.607C296.007 191.607 239.008 244.019 231.164 312.798L240.103 308.488L375.914 337.12L427.453 203.969Z" fill="white"/>
<path d="M436.378 199.659C417.626 191.525 397.407 187.318 376.968 187.297C304.904 187.297 247.905 239.709 240.061 308.488L384.853 332.81L436.378 199.659Z" fill="#407BFF"/>
<path opacity="0.6" d="M436.378 199.659C417.626 191.525 397.407 187.318 376.968 187.297C304.904 187.297 247.905 239.709 240.061 308.488L384.853 332.81L436.378 199.659Z" fill="white"/>
<path d="M455.378 193.825L403.825 326.975L531.89 403.196L540.828 398.886C540.828 398.886 550.723 352.641 549.337 326.92C546.219 269.546 464.289 189.459 464.289 189.459L455.378 193.825Z" fill="#407BFF"/>
<path opacity="0.1" d="M455.378 193.825L403.825 326.975L531.89 403.196L540.828 398.886C540.828 398.886 550.723 352.641 549.337 326.92C546.219 269.546 464.289 189.459 464.289 189.459L455.378 193.825Z" fill="white"/>
<path d="M464.289 189.487L412.75 322.665L540.828 398.886C553.792 375.663 559.842 349.215 558.262 322.665C555.047 263.199 516.604 212.09 464.289 189.487Z" fill="#407BFF"/>
<path opacity="0.2" d="M464.289 189.487L412.75 322.665L540.828 398.886C553.792 375.663 559.842 349.215 558.262 322.665C555.047 263.199 516.604 212.09 464.289 189.487Z" fill="white"/>
<g opacity="0.4" style="mix-blend-mode:color-dodge">
<path d="M537.502 387.661C537.444 387.679 537.381 387.679 537.322 387.661L422.866 319.492C422.796 319.449 422.743 319.381 422.717 319.303C422.692 319.224 422.696 319.139 422.728 319.062L468.46 200.768C468.476 200.721 468.503 200.678 468.537 200.642C468.571 200.607 468.613 200.579 468.659 200.56C468.705 200.542 468.754 200.534 468.803 200.536C468.853 200.538 468.901 200.551 468.945 200.574C492.08 212.249 511.788 229.731 526.138 251.309C540.45 272.683 548.781 297.498 550.266 323.178C551.537 345.326 547.249 367.44 537.793 387.508C537.773 387.555 537.742 387.597 537.704 387.63C537.666 387.664 537.62 387.688 537.572 387.702L537.502 387.661ZM423.504 318.965L537.378 386.788C546.674 366.909 550.879 345.031 549.614 323.123C546.843 271.708 515.953 225.047 469.014 201.28L423.504 318.965Z" fill="#FAFAFA"/>
</g>
<g opacity="0.4" style="mix-blend-mode:color-dodge">
<path d="M379.545 323.829L249.374 301.975C249.286 301.957 249.207 301.908 249.152 301.836C249.119 301.752 249.119 301.658 249.152 301.573C254.235 271.717 269.748 244.633 292.931 225.144C316.607 205.671 346.353 195.1 377.009 195.266C393.672 195.266 410.202 198.222 425.832 203.997C425.877 204.008 425.918 204.031 425.952 204.062C425.986 204.094 426.011 204.133 426.026 204.177C426.061 204.266 426.061 204.365 426.026 204.454L379.905 323.635C379.874 323.702 379.822 323.756 379.757 323.791C379.692 323.826 379.618 323.84 379.545 323.829ZM249.845 301.351L379.323 323.095L425.208 204.523C409.751 198.859 393.417 195.96 376.954 195.959C312.998 195.959 260.766 239.28 249.845 301.351Z" fill="#FAFAFA"/>
</g>
<path d="M375.914 337.12L240.103 308.488L231.123 312.826C230.203 320.899 229.967 329.035 230.416 337.147C234.767 417.526 303.449 482.66 383.814 482.66C436.198 482.66 480.614 454.943 503.979 413.368L375.914 337.12Z" fill="#407BFF"/>
<path opacity="0.2" d="M375.914 337.12L240.103 308.488L231.123 312.826C230.203 320.899 229.967 329.035 230.416 337.147C234.767 417.526 303.449 482.66 383.814 482.66C436.198 482.66 480.614 454.943 503.979 413.368L375.914 337.12Z" fill="black"/>
<path d="M384.853 332.81L240.061 308.488C239.144 316.561 238.903 324.697 239.341 332.81C243.706 413.188 312.374 478.322 392.738 478.322C445.137 478.322 489.552 450.605 512.918 409.03L384.853 332.81Z" fill="#407BFF"/>
<path opacity="0.1" d="M384.853 332.81L240.061 308.488C239.144 316.561 238.903 324.697 239.341 332.81C243.706 413.188 312.374 478.322 392.738 478.322C445.137 478.322 489.552 450.605 512.918 409.03L384.853 332.81Z" fill="black"/>
<g opacity="0.4" style="mix-blend-mode:color-dodge">
<path d="M392.738 470.353C316.67 470.353 251.384 408.448 247.226 332.38C246.984 327.648 246.984 322.907 247.226 318.175C247.224 318.127 247.235 318.078 247.257 318.035C247.278 317.991 247.311 317.954 247.351 317.926C247.387 317.891 247.431 317.865 247.479 317.851C247.528 317.837 247.578 317.834 247.628 317.843L381.957 340.404H382.067L501.609 411.608C501.651 411.632 501.687 411.663 501.716 411.702C501.744 411.74 501.765 411.783 501.776 411.83C501.807 411.915 501.807 412.008 501.776 412.093C490.15 430.065 474.165 444.801 455.309 454.929C436.032 465.124 414.544 470.421 392.738 470.353ZM247.933 318.591C247.725 323.164 247.739 327.779 247.933 332.338C252.09 408.046 316.975 469.661 392.683 469.661C437.653 469.661 477.094 448.665 500.93 412.065L381.749 341.083L247.933 318.591Z" fill="#FAFAFA"/>
</g>
<path d="M227.63 355.454C226.592 349.494 225.903 343.479 225.565 337.438L226.951 337.355C227.275 343.359 227.956 349.337 228.988 355.26L227.63 355.454Z" fill="#407BFF"/>
<path opacity="0.2" d="M227.63 355.454C226.592 349.494 225.903 343.479 225.565 337.438L226.951 337.355C227.275 343.359 227.956 349.337 228.988 355.26L227.63 355.454Z" fill="black"/>
<path d="M230.873 369.645C230.097 366.873 229.39 363.935 228.781 361.095L230.166 360.803C230.776 363.575 231.469 366.472 232.231 369.285L230.873 369.645Z" fill="#407BFF"/>
<path opacity="0.2" d="M230.873 369.645C230.097 366.873 229.39 363.935 228.781 361.095L230.166 360.803C230.776 363.575 231.469 366.472 232.231 369.285L230.873 369.645Z" fill="black"/>
<path d="M565.441 357.353L555.546 354.692L557.694 367.4C557.694 367.4 566.618 367.802 567.395 363.09L565.441 357.353Z" fill="#E4897B"/>
<path d="M547.757 357.921L550.03 368.356L557.694 367.4L555.546 354.692L547.757 357.921Z" fill="#E4897B"/>
<path d="M272.457 41.0596L231.397 3.05176e-05H199.412L234.91 35.4977H225.142V81.0252H262.689V41.0596H272.457Z" fill="#407BFF"/>
<path opacity="0.4" d="M272.457 41.0596L231.397 3.05176e-05H199.412L234.91 35.4977H225.142V81.0252H262.689V41.0596H272.457Z" fill="white"/>
<path d="M240.472 41.0596L199.412 3.05176e-05L158.353 41.0596H173.683V81.0252H225.142V41.0596H240.472Z" fill="#407BFF"/>
<path opacity="0.7" d="M240.472 41.0596L199.412 3.05176e-05L158.353 41.0596H173.683V81.0252H225.142V41.0596H240.472Z" fill="white"/>
<path d="M298.895 204.959L257.835 163.884H225.851L261.348 199.381H251.58V244.909H289.127V204.959H298.895Z" fill="#407BFF"/>
<path opacity="0.4" d="M298.895 204.959L257.835 163.884H225.851L261.348 199.381H251.58V244.909H289.127V204.959H298.895Z" fill="white"/>
<path d="M266.91 204.959L225.851 163.884L184.791 204.959H200.106V244.909H251.58V204.959H266.91Z" fill="#407BFF"/>
<path opacity="0.7" d="M266.91 204.959L225.851 163.884L184.791 204.959H200.106V244.909H251.58V204.959H266.91Z" fill="white"/>
<path d="M114.104 247.651L73.029 206.592H41.0595L76.5572 242.074H66.7892V287.617H104.336V247.651H114.104Z" fill="#407BFF"/>
<path opacity="0.4" d="M114.104 247.651L73.029 206.592H41.0595L76.5572 242.074H66.7892V287.617H104.336V247.651H114.104Z" fill="white"/>
<path d="M82.1191 247.651L41.0595 206.592L0 247.651H15.3145V287.602H66.7892V247.651H82.1191Z" fill="#407BFF"/>
<path opacity="0.7" d="M82.1191 247.651L41.0595 206.592L0 247.651H15.3145V287.602H66.7892V247.651H82.1191Z" fill="white"/>
<path d="M111.654 109.682H89.5607L86.4023 106.539L60.7497 58.7774L111.654 109.682Z" fill="#2F54C6"/>
<path d="M89.4835 156.072H136.028V99.6214H89.4835V156.072Z" fill="#407BFF"/>
<path opacity="0.3" d="M89.4835 156.072H136.028V99.6214H89.4835V156.072Z" fill="black"/>
<path d="M108.496 106.539H148.153L97.2333 55.619H57.5912L108.496 106.539Z" fill="#407BFF"/>
<path opacity="0.3" d="M108.496 106.539H148.153L97.2333 55.619H57.5912L108.496 106.539Z" fill="black"/>
<path d="M89.4836 92.2568V156.072H25.6834V92.2568L57.5912 61.2735L57.9147 61.597L60.7496 64.3394L89.4836 92.2568Z" fill="#407BFF"/>
<path opacity="0.3" d="M60.7496 58.7774V80.871L31.9232 109.682H25.6834V93.8436L57.9147 61.5969L60.7496 58.7774Z" fill="black"/>
<path d="M108.496 106.539H86.4022L57.5912 77.7126V55.619L108.496 106.539Z" fill="#407BFF"/>
<path d="M6.67127 106.539H28.7649L57.5913 77.7126V55.619L6.67127 106.539Z" fill="#407BFF"/>
<path d="M220.25 387.797C220.192 381.536 218.383 375.382 214.98 369.872C211.578 364.362 206.684 359.663 200.727 356.183C194.769 352.704 187.928 350.55 180.8 349.91C173.672 349.269 166.472 350.161 159.829 352.509C154.997 343.857 147.206 336.732 137.535 332.119C127.864 327.507 116.79 325.635 105.848 326.763C94.9057 327.891 84.6354 331.964 76.4589 338.417C68.2823 344.869 62.6039 353.383 60.2098 362.78C48.5601 363.672 37.7442 368.43 29.9862 376.075C22.2282 383.721 18.1178 393.673 18.5002 403.885C18.8825 414.097 23.7285 423.792 32.0418 430.978C40.3551 438.165 51.5037 442.295 63.1953 442.519H208.71C216.244 442.447 223.515 440.089 229.278 435.849C235.041 431.609 238.938 425.75 240.302 419.276C241.665 412.802 240.411 406.115 236.753 400.36C233.095 394.605 227.261 390.14 220.25 387.729V387.797Z" fill="white"/>
<path d="M592.815 572.197C592.751 565.947 590.942 559.804 587.544 554.303C584.147 548.802 579.263 544.109 573.318 540.632C567.373 537.154 560.546 534.997 553.43 534.349C546.315 533.7 539.125 534.579 532.486 536.909C527.654 528.258 519.864 521.132 510.192 516.52C500.521 511.907 489.448 510.035 478.506 511.164C467.563 512.292 457.293 516.364 449.117 522.817C440.94 529.27 435.262 537.784 432.868 547.181C421.01 547.842 409.913 552.509 401.926 560.194C393.939 567.88 389.689 577.98 390.077 588.355C390.465 598.731 395.46 608.567 404.005 615.78C412.549 622.994 423.972 627.018 435.853 627.001H581.368C588.901 626.918 596.167 624.551 601.922 620.303C607.677 616.055 611.564 610.192 612.916 603.717C614.269 597.241 613.003 590.557 609.336 584.807C605.669 579.057 599.829 574.599 592.815 572.197Z" fill="#D5E1FB"/>
<path d="M453.596 447.669C453.562 444.422 452.622 441.232 450.857 438.375C449.091 435.519 446.553 433.082 443.465 431.277C440.376 429.472 436.829 428.354 433.133 428.019C429.437 427.684 425.703 428.143 422.256 429.356C419.752 424.866 415.711 421.167 410.694 418.773C405.676 416.378 399.931 415.407 394.253 415.994C388.576 416.581 383.248 418.696 379.008 422.047C374.768 425.397 371.826 429.818 370.59 434.694C364.436 435.031 358.673 437.449 354.525 441.436C350.377 445.422 348.169 450.664 348.371 456.049C348.572 461.434 351.166 466.538 355.603 470.28C360.04 474.022 365.971 476.106 372.137 476.091H447.609C451.521 476.069 455.301 474.855 458.3 472.66C461.298 470.465 463.326 467.424 464.035 464.063C464.744 460.702 464.089 457.23 462.184 454.245C460.278 451.26 457.241 448.949 453.596 447.71V447.669Z" fill="white"/>
<path d="M559.974 328.695C559.929 324.406 558.686 320.191 556.353 316.417C554.019 312.643 550.666 309.424 546.585 307.04C542.504 304.656 537.818 303.179 532.935 302.736C528.052 302.294 523.119 302.901 518.565 304.503C515.252 298.576 509.913 293.694 503.286 290.535C496.659 287.375 489.071 286.093 481.574 286.867C474.076 287.64 467.039 290.43 461.437 294.852C455.834 299.273 451.942 305.106 450.301 311.544C442.212 312.041 434.659 315.257 429.227 320.516C423.796 325.776 420.909 332.671 421.173 339.751C421.437 346.832 424.832 353.548 430.645 358.487C436.457 363.427 444.235 366.206 452.343 366.24H552.054C557.25 366.243 562.282 364.655 566.276 361.752C570.27 358.849 572.973 354.814 573.915 350.35C574.857 345.886 573.978 341.275 571.431 337.318C568.884 333.362 564.83 330.31 559.974 328.695Z" fill="#D1DDF7"/>
<path d="M240.266 560.331C240.226 556.041 238.986 551.824 236.653 548.048C234.321 544.272 230.967 541.052 226.884 538.668C222.801 536.284 218.113 534.809 213.228 534.37C208.342 533.932 203.409 534.544 198.856 536.153C195.549 530.223 190.213 525.339 183.587 522.177C176.962 519.015 169.375 517.731 161.877 518.503C154.38 519.275 147.342 522.065 141.74 526.486C136.138 530.908 132.247 536.742 130.608 543.18C122.521 543.676 114.968 546.891 109.536 552.15C104.105 557.408 101.217 564.301 101.479 571.381C101.741 578.46 105.133 585.176 110.943 590.116C116.752 595.057 124.527 597.838 132.634 597.876H232.393C237.588 597.879 242.62 596.291 246.614 593.388C250.608 590.485 253.311 586.45 254.253 581.986C255.195 577.522 254.316 572.911 251.769 568.954C249.222 564.998 245.168 561.946 240.313 560.331H240.266Z" fill="#E0E0E0"/>
<path d="M124.111 424.963C123.907 424.959 123.713 424.887 123.57 424.761C123.494 424.701 123.436 424.627 123.4 424.544C123.378 424.46 123.378 424.372 123.4 424.288C123.378 424.199 123.378 424.106 123.4 424.017C123.436 423.935 123.494 423.861 123.57 423.801C123.68 423.712 123.816 423.651 123.964 423.624C124.111 423.598 124.264 423.608 124.405 423.652C124.496 423.691 124.579 423.741 124.653 423.801C124.727 423.864 124.786 423.94 124.826 424.023C124.866 424.107 124.886 424.197 124.885 424.288C124.906 424.372 124.906 424.46 124.885 424.544C124.848 424.627 124.79 424.701 124.714 424.761C124.636 424.83 124.542 424.884 124.438 424.919C124.334 424.953 124.222 424.969 124.111 424.963Z" fill="#E0E0E0"/>
<path d="M124.111 462.198C124.014 462.217 123.914 462.217 123.817 462.198C123.631 462.126 123.482 461.995 123.4 461.833C123.377 461.748 123.377 461.66 123.4 461.576C123.378 461.491 123.378 461.404 123.4 461.319C123.433 461.235 123.491 461.16 123.57 461.103C123.639 461.039 123.724 460.988 123.817 460.954C124.006 460.887 124.217 460.887 124.405 460.954C124.499 460.988 124.583 461.039 124.653 461.103C124.731 461.16 124.79 461.235 124.823 461.319C124.845 461.404 124.845 461.491 124.823 461.576C124.824 461.665 124.804 461.752 124.764 461.834C124.724 461.915 124.665 461.989 124.591 462.049C124.525 462.117 124.44 462.169 124.343 462.198C124.266 462.21 124.188 462.21 124.111 462.198Z" fill="#E0E0E0"/>
<path d="M275.365 462.198C275.268 462.218 275.167 462.218 275.071 462.198C274.971 462.166 274.881 462.115 274.808 462.049C274.739 461.988 274.686 461.914 274.653 461.833C274.63 461.748 274.63 461.66 274.653 461.576C274.659 461.401 274.736 461.233 274.87 461.103C274.943 461.037 275.033 460.986 275.133 460.954C275.321 460.887 275.532 460.887 275.72 460.954C275.817 460.983 275.903 461.034 275.968 461.103C276.114 461.228 276.197 461.398 276.2 461.576C276.195 461.754 276.112 461.923 275.968 462.049C275.903 462.117 275.817 462.169 275.72 462.198C275.604 462.226 275.481 462.226 275.365 462.198Z" fill="#E0E0E0"/>
<path d="M275.365 381.715C275.267 381.729 275.168 381.729 275.071 381.715L274.808 381.567C274.742 381.503 274.69 381.43 274.653 381.35C274.631 381.266 274.631 381.178 274.653 381.093C274.631 381.004 274.631 380.912 274.653 380.823C274.69 380.744 274.742 380.671 274.808 380.607L275.071 380.458C275.259 380.391 275.47 380.391 275.658 380.458C275.749 380.497 275.833 380.547 275.906 380.607C276.049 380.739 276.131 380.912 276.138 381.093C276.134 381.272 276.051 381.441 275.907 381.567C275.763 381.693 275.568 381.766 275.365 381.769V381.715Z" fill="#E0E0E0"/>
<path d="M497.651 381.715C497.446 381.715 497.249 381.644 497.104 381.517C496.959 381.39 496.877 381.219 496.877 381.039C496.878 380.859 496.956 380.686 497.094 380.553C497.17 380.496 497.253 380.446 497.341 380.404C497.485 380.355 497.641 380.343 497.792 380.37C497.942 380.396 498.081 380.46 498.192 380.553C498.261 380.622 498.318 380.699 498.362 380.783C498.378 380.868 498.378 380.954 498.362 381.039C498.364 381.216 498.286 381.385 498.146 381.512C498.014 381.629 497.838 381.701 497.651 381.715Z" fill="#E0E0E0"/>
<path d="M497.651 327.114C497.547 327.115 497.444 327.098 497.348 327.063C497.253 327.028 497.166 326.976 497.094 326.911C496.954 326.784 496.876 326.614 496.877 326.438C496.861 326.353 496.861 326.266 496.877 326.181C496.921 326.102 496.979 326.029 497.048 325.965C497.195 325.84 497.392 325.771 497.597 325.771C497.802 325.771 497.999 325.84 498.146 325.965C498.286 326.092 498.364 326.262 498.362 326.438C498.379 326.523 498.379 326.61 498.362 326.695C498.319 326.774 498.261 326.847 498.192 326.911C498.124 326.977 498.039 327.028 497.945 327.06C497.853 327.097 497.752 327.116 497.651 327.114Z" fill="#E0E0E0"/>
<path d="M177.942 581.428C177.736 581.431 177.536 581.363 177.385 581.239C177.311 581.173 177.254 581.095 177.215 581.009C177.199 580.924 177.199 580.837 177.215 580.752C177.22 580.575 177.303 580.405 177.447 580.279C177.559 580.188 177.698 580.125 177.848 580.099C177.999 580.072 178.155 580.084 178.298 580.131C178.39 580.168 178.473 580.218 178.546 580.279C178.686 580.406 178.763 580.576 178.762 580.752C178.778 580.837 178.778 580.924 178.762 581.009C178.718 581.093 178.661 581.17 178.592 581.239C178.519 581.296 178.435 581.342 178.345 581.374C178.22 581.428 178.08 581.447 177.942 581.428Z" fill="#E0E0E0"/>
<path d="M177.942 622.879C177.838 622.881 177.735 622.864 177.639 622.829C177.543 622.794 177.457 622.742 177.385 622.676C177.312 622.616 177.254 622.542 177.215 622.46C177.199 622.375 177.199 622.288 177.215 622.203C177.201 622.118 177.201 622.032 177.215 621.946C177.254 621.865 177.312 621.791 177.385 621.73C177.495 621.635 177.634 621.571 177.785 621.545C177.937 621.518 178.093 621.531 178.236 621.582C178.331 621.614 178.416 621.664 178.484 621.73C178.553 621.794 178.61 621.867 178.654 621.946C178.669 622.032 178.669 622.118 178.654 622.203C178.67 622.288 178.67 622.375 178.654 622.46C178.61 622.539 178.553 622.612 178.484 622.676C178.416 622.742 178.331 622.793 178.236 622.825C178.144 622.862 178.044 622.881 177.942 622.879Z" fill="#E0E0E0"/>
<path d="M275.365 622.879C275.268 622.899 275.167 622.899 275.071 622.879C274.971 622.848 274.881 622.797 274.808 622.73C274.739 622.669 274.686 622.595 274.653 622.514C274.63 622.43 274.63 622.342 274.653 622.257C274.652 622.081 274.73 621.911 274.87 621.784C274.943 621.718 275.033 621.667 275.133 621.636C275.321 621.568 275.532 621.568 275.72 621.636C275.817 621.664 275.903 621.716 275.968 621.784C276.112 621.91 276.195 622.079 276.2 622.257C276.222 622.342 276.222 622.43 276.2 622.514C276.162 622.596 276.103 622.67 276.03 622.73C275.964 622.799 275.879 622.85 275.782 622.879C275.647 622.918 275.5 622.918 275.365 622.879Z" fill="#E0E0E0"/>
<path d="M275.365 504.851C275.267 504.866 275.168 504.866 275.071 504.851C274.974 504.815 274.885 504.765 274.808 504.703C274.742 504.639 274.69 504.566 274.653 504.487C274.631 504.402 274.631 504.314 274.653 504.23C274.651 504.049 274.729 503.875 274.87 503.743C274.948 503.686 275.037 503.64 275.133 503.608C275.321 503.54 275.532 503.54 275.72 503.608C275.813 503.637 275.897 503.683 275.968 503.743C276.111 503.875 276.193 504.048 276.2 504.23C276.222 504.314 276.222 504.402 276.2 504.487C276.158 504.567 276.1 504.64 276.03 504.703C275.887 504.83 275.692 504.903 275.488 504.906L275.365 504.851Z" fill="#E0E0E0"/>
<path d="M406.354 504.851C406.15 504.847 405.956 504.775 405.813 504.649C405.742 504.586 405.685 504.512 405.643 504.432C405.628 504.347 405.628 504.261 405.643 504.176C405.626 504.091 405.626 504.004 405.643 503.919C405.681 503.833 405.739 503.755 405.813 503.689C405.883 503.629 405.968 503.583 406.06 503.554C406.151 503.514 406.252 503.492 406.354 503.492C406.456 503.492 406.557 503.514 406.648 503.554C406.744 503.586 406.833 503.631 406.911 503.689C406.98 503.755 407.033 503.834 407.066 503.919C407.089 504.003 407.089 504.091 407.066 504.176C407.067 504.352 406.989 504.522 406.849 504.649C406.714 504.762 406.54 504.833 406.354 504.851Z" fill="#E0E0E0"/>
<path d="M406.354 462.198C406.152 462.199 405.958 462.131 405.813 462.008C405.742 461.941 405.685 461.863 405.643 461.779C405.626 461.694 405.626 461.607 405.643 461.522C405.628 461.437 405.628 461.35 405.643 461.265C405.725 461.102 405.874 460.972 406.06 460.9C406.203 460.851 406.36 460.839 406.511 460.866C406.661 460.892 406.8 460.956 406.911 461.049C407.045 461.179 407.121 461.347 407.128 461.522C407.132 461.612 407.115 461.701 407.078 461.785C407.04 461.869 406.984 461.945 406.911 462.008C406.838 462.072 406.751 462.121 406.655 462.154C406.559 462.187 406.457 462.201 406.354 462.198Z" fill="#E0E0E0"/>
<path d="M497.651 611.621C497.442 611.621 497.241 611.548 497.094 611.418C496.954 611.292 496.876 611.122 496.877 610.945C496.878 610.766 496.956 610.592 497.094 610.459C497.206 610.368 497.346 610.307 497.497 610.283C497.647 610.259 497.803 610.273 497.945 610.324C498.036 610.356 498.119 610.402 498.192 610.459C498.261 610.528 498.318 610.605 498.362 610.689C498.379 610.774 498.379 610.86 498.362 610.945C498.364 611.122 498.286 611.292 498.146 611.418C498.014 611.535 497.838 611.607 497.651 611.621Z" fill="#E0E0E0"/>
<path d="M497.651 666.128C497.547 666.129 497.444 666.112 497.348 666.077C497.252 666.042 497.166 665.99 497.094 665.925C496.965 665.794 496.898 665.624 496.908 665.452C496.892 665.367 496.892 665.28 496.908 665.195C496.952 665.116 497.009 665.043 497.078 664.979C497.225 664.854 497.422 664.784 497.627 664.784C497.832 664.784 498.029 664.854 498.177 664.979C498.317 665.106 498.394 665.276 498.393 665.452C498.408 665.537 498.408 665.624 498.393 665.709C498.349 665.788 498.292 665.861 498.223 665.925C498.155 665.991 498.07 666.042 497.975 666.074C497.874 666.115 497.762 666.134 497.651 666.128Z" fill="#E0E0E0"/>
<path d="M275.365 666.127C275.268 666.148 275.167 666.148 275.071 666.127C274.971 666.096 274.881 666.045 274.808 665.979C274.673 665.849 274.598 665.681 274.598 665.506C274.598 665.331 274.673 665.162 274.808 665.033C274.881 664.966 274.971 664.916 275.071 664.884C275.259 664.816 275.47 664.816 275.659 664.884C275.755 664.913 275.841 664.964 275.906 665.033C275.978 665.094 276.035 665.168 276.074 665.249C276.113 665.33 276.133 665.418 276.133 665.506C276.133 665.594 276.113 665.681 276.074 665.762C276.035 665.844 275.978 665.917 275.906 665.979C275.841 666.047 275.755 666.099 275.659 666.127C275.562 666.147 275.461 666.147 275.365 666.127Z" fill="#E0E0E0"/>
<path d="M275.365 622.879C275.268 622.899 275.167 622.899 275.071 622.879C274.971 622.848 274.881 622.797 274.808 622.73C274.739 622.669 274.686 622.595 274.653 622.514C274.63 622.43 274.63 622.342 274.653 622.257C274.652 622.081 274.73 621.911 274.87 621.784C274.943 621.718 275.033 621.667 275.133 621.636C275.321 621.568 275.532 621.568 275.72 621.636C275.817 621.664 275.903 621.716 275.968 621.784C276.112 621.91 276.195 622.079 276.2 622.257C276.222 622.342 276.222 622.43 276.2 622.514C276.162 622.596 276.103 622.67 276.03 622.73C275.964 622.799 275.879 622.85 275.782 622.879C275.647 622.918 275.5 622.918 275.365 622.879Z" fill="#E0E0E0"/>
<path d="M275.365 462.198C275.268 462.218 275.167 462.218 275.071 462.198C274.971 462.166 274.881 462.115 274.808 462.049C274.739 461.988 274.686 461.914 274.653 461.833C274.63 461.748 274.63 461.66 274.653 461.576C274.659 461.401 274.736 461.233 274.87 461.103C274.943 461.037 275.033 460.986 275.133 460.954C275.321 460.887 275.532 460.887 275.72 460.954C275.817 460.983 275.903 461.034 275.968 461.103C276.114 461.228 276.197 461.398 276.2 461.576C276.195 461.754 276.112 461.923 275.968 462.049C275.903 462.117 275.817 462.169 275.72 462.198C275.604 462.226 275.481 462.226 275.365 462.198Z" fill="#E0E0E0"/>
<path d="M275.365 504.851C275.267 504.866 275.168 504.866 275.071 504.851C274.974 504.815 274.885 504.765 274.808 504.703C274.742 504.639 274.69 504.566 274.653 504.487C274.631 504.402 274.631 504.314 274.653 504.23C274.651 504.049 274.729 503.875 274.87 503.743C274.948 503.686 275.037 503.64 275.133 503.608C275.321 503.54 275.532 503.54 275.72 503.608C275.813 503.637 275.897 503.683 275.968 503.743C276.111 503.875 276.193 504.048 276.2 504.23C276.222 504.314 276.222 504.402 276.2 504.487C276.158 504.567 276.1 504.64 276.03 504.703C275.887 504.83 275.692 504.903 275.488 504.906L275.365 504.851Z" fill="#E0E0E0"/>
</svg>
