<svg width="629" height="673" viewBox="0 0 629 673" fill="none" xmlns="http://www.w3.org/2000/svg">
<path d="M628.368 356.725H125.34V356.977H628.368V356.725Z" fill="#E0E0E0"/>
<path d="M534.503 364.372H502.35V364.623H534.503V364.372Z" fill="#E0E0E0"/>
<path d="M575.027 364.251H539V364.502H575.027V364.251Z" fill="#E0E0E0"/>
<path d="M407.247 368.657H341.31V368.909H407.247V368.657Z" fill="#E0E0E0"/>
<path d="M335.515 368.657H324.811V368.909H335.515V368.657Z" fill="#E0E0E0"/>
<path d="M274.538 363.999H242.545V364.251H274.538V363.999Z" fill="#E0E0E0"/>
<path d="M466.896 363.999H437.871V364.251H466.896V363.999Z" fill="#E0E0E0"/>
<path d="M220.241 366.947H190.663V367.198H220.241V366.947Z" fill="#E0E0E0"/>
<path d="M363.775 311.855H169.516C167.994 311.853 166.535 311.246 165.46 310.169C164.385 309.092 163.781 307.632 163.781 306.111V33.0363C163.794 31.5232 164.404 30.0764 165.478 29.0102C166.551 27.944 168.002 27.3446 169.516 27.342H363.775C365.299 27.342 366.76 27.9472 367.837 29.0245C368.915 30.1018 369.52 31.563 369.52 33.0866V306.111C369.52 307.634 368.915 309.095 367.837 310.173C366.76 311.25 365.299 311.855 363.775 311.855ZM169.516 27.5432C168.06 27.5458 166.666 28.1257 165.638 29.1556C164.61 30.1855 164.033 31.5811 164.033 33.0363V306.111C164.033 307.566 164.61 308.961 165.638 309.991C166.666 311.021 168.06 311.601 169.516 311.604H363.775C365.231 311.601 366.627 311.021 367.657 309.992C368.686 308.962 369.266 307.567 369.268 306.111V33.0363C369.266 31.5802 368.686 30.1846 367.657 29.155C366.627 28.1254 365.231 27.5458 363.775 27.5432H169.516Z" fill="#E0E0E0"/>
<path d="M581.396 311.855H387.126C385.603 311.853 384.144 311.246 383.067 310.17C381.99 309.093 381.384 307.633 381.381 306.111V33.0363C381.397 31.5223 382.009 30.0755 383.084 29.0096C384.16 27.9437 385.612 27.3445 387.126 27.342H581.396C582.907 27.3472 584.355 27.9479 585.427 29.0138C586.499 30.0797 587.107 31.5249 587.12 33.0363V306.111C587.12 307.631 586.518 309.089 585.445 310.166C584.372 311.242 582.916 311.85 581.396 311.855ZM387.126 27.5432C385.67 27.5458 384.274 28.1254 383.245 29.155C382.215 30.1846 381.635 31.5802 381.633 33.0363V306.111C381.635 307.567 382.215 308.962 383.245 309.992C384.274 311.021 385.67 311.601 387.126 311.604H581.396C582.852 311.601 584.247 311.021 585.277 309.992C586.306 308.962 586.886 307.567 586.889 306.111V33.0363C586.886 31.5802 586.306 30.1846 585.277 29.155C584.247 28.1254 582.852 27.5458 581.396 27.5432H387.126Z" fill="#E0E0E0"/>
<path d="M278.462 289.671C256.766 289.678 235.556 283.248 217.515 271.196C199.475 259.145 185.415 242.012 177.114 221.967C168.813 201.922 166.645 179.866 170.883 158.588C175.122 137.31 185.576 117.768 200.925 102.434C200.948 102.41 200.976 102.39 201.007 102.377C201.039 102.364 201.072 102.357 201.106 102.357C201.14 102.357 201.173 102.364 201.204 102.377C201.235 102.39 201.263 102.41 201.287 102.434L221.468 122.616C221.493 122.639 221.512 122.667 221.525 122.698C221.539 122.729 221.545 122.763 221.545 122.797C221.545 122.83 221.539 122.864 221.525 122.895C221.512 122.926 221.493 122.954 221.468 122.978C208.909 135.529 200.843 151.875 198.525 169.479C196.206 187.083 199.763 204.961 208.645 220.336C217.526 235.711 231.235 247.725 247.643 254.511C264.051 261.298 282.24 262.479 299.388 257.87C299.418 257.857 299.45 257.85 299.483 257.85C299.516 257.85 299.549 257.857 299.579 257.87C299.637 257.903 299.68 257.957 299.699 258.021L307.094 285.607C307.119 285.668 307.119 285.737 307.094 285.798C307.057 285.857 307 285.9 306.933 285.919C297.647 288.408 288.075 289.67 278.462 289.671ZM201.106 102.967C184.183 119.973 173.332 142.08 170.23 165.87C167.129 189.661 171.95 213.81 183.947 234.587C195.945 255.363 214.451 271.609 236.606 280.815C258.762 290.021 283.332 291.673 306.521 285.516L299.257 258.413C282.032 262.976 263.784 261.743 247.331 254.903C230.877 248.062 217.133 235.996 208.22 220.567C199.306 205.137 195.72 187.203 198.015 169.532C200.309 151.862 208.357 135.438 220.915 122.797L201.106 102.967Z" fill="#E0E0E0"/>
<path d="M335.686 123.048C335.619 123.049 335.554 123.024 335.505 122.978C320.371 107.878 299.865 99.3972 278.487 99.3972C257.108 99.3972 236.602 107.878 221.468 122.978C221.446 123.002 221.419 123.021 221.388 123.034C221.358 123.047 221.325 123.054 221.292 123.054C221.259 123.054 221.227 123.047 221.196 123.034C221.166 123.021 221.139 123.002 221.116 122.978L200.925 102.796C200.901 102.774 200.881 102.746 200.868 102.716C200.855 102.686 200.848 102.653 200.848 102.62C200.848 102.587 200.855 102.555 200.868 102.524C200.881 102.494 200.901 102.467 200.925 102.444C221.501 81.8805 249.401 70.329 278.492 70.329C307.582 70.329 335.482 81.8805 356.059 102.444C356.103 102.492 356.127 102.555 356.127 102.62C356.127 102.685 356.103 102.748 356.059 102.796L335.867 122.988C335.817 123.03 335.752 123.052 335.686 123.048ZM278.492 98.9028C299.924 98.8651 320.495 107.336 335.686 122.455L355.516 102.615C335.047 82.2597 307.354 70.8335 278.487 70.8335C249.62 70.8335 221.926 82.2597 201.458 102.615L221.297 122.455C236.486 107.33 257.058 98.8555 278.492 98.8928V98.9028Z" fill="#E0E0E0"/>
<path d="M306.832 285.949C306.789 285.958 306.745 285.958 306.702 285.949C306.674 285.933 306.65 285.911 306.631 285.885C306.612 285.859 306.598 285.829 306.591 285.798L299.196 258.212C299.171 258.151 299.171 258.082 299.196 258.021C299.212 257.993 299.234 257.969 299.26 257.95C299.286 257.931 299.316 257.917 299.347 257.91C313.029 254.256 325.507 247.062 335.525 237.052C345.543 227.042 352.747 214.57 356.413 200.891C360.079 187.212 360.076 172.809 356.406 159.131C352.735 145.453 345.526 132.984 335.505 122.978C335.46 122.928 335.436 122.863 335.436 122.797C335.436 122.73 335.46 122.665 335.505 122.616L355.727 102.434C355.75 102.41 355.778 102.39 355.809 102.377C355.841 102.364 355.874 102.357 355.908 102.357C355.942 102.357 355.975 102.364 356.006 102.377C356.037 102.39 356.065 102.41 356.089 102.434C369.619 116.083 379.335 133.041 384.267 151.617C389.199 170.192 389.175 189.736 384.197 208.3C379.219 226.863 369.462 243.797 355.898 257.413C342.334 271.029 325.437 280.85 306.893 285.899L306.832 285.949ZM299.74 258.282L307.013 285.386C325.468 280.387 342.287 270.631 355.788 257.093C369.29 243.554 378.999 226.708 383.946 208.24C388.894 189.771 388.905 170.327 383.979 151.853C379.053 133.378 369.363 116.521 355.878 102.967L336.038 122.797C346.052 132.865 353.248 145.385 356.905 159.107C360.562 172.828 360.553 187.269 356.878 200.985C353.203 214.702 345.992 227.213 335.965 237.268C325.937 247.323 313.446 254.57 299.74 258.282Z" fill="#E0E0E0"/>
<path d="M224.054 338.807V356.725C239.174 356.724 253.872 351.734 265.867 342.528C277.862 333.322 286.484 320.416 290.395 305.81C294.307 291.205 293.29 275.716 287.501 261.748C281.713 247.779 271.477 236.111 258.381 228.553L249.427 244.077C259.104 249.664 266.668 258.288 270.945 268.612C275.222 278.935 275.973 290.382 273.082 301.176C270.191 311.97 263.819 321.508 254.954 328.312C246.09 335.116 235.228 338.805 224.054 338.807Z" fill="#E0E0E0"/>
<path d="M155.37 288.042C155.373 306.257 162.61 323.725 175.49 336.606C188.37 349.486 205.839 356.723 224.054 356.725V338.808C210.591 338.805 197.68 333.456 188.16 323.936C178.64 314.416 173.291 301.505 173.288 288.042H155.37Z" fill="#F0F0F0"/>
<path d="M155.37 288.042H173.288C173.286 279.131 175.63 270.376 180.084 262.658C184.539 254.941 190.946 248.532 198.663 244.076C206.38 239.62 215.134 237.274 224.045 237.274C232.956 237.274 241.71 239.621 249.427 244.077L258.381 228.553C225.754 209.72 183.419 221.078 164.576 253.705C158.55 264.145 155.375 275.987 155.37 288.042Z" fill="#EBEBEB"/>
<path d="M444.672 330.769H422.549V356.725H444.672V330.769Z" fill="#F5F5F5"/>
<path d="M471.313 338.596H449.189V356.725H471.313V338.596Z" fill="#E0E0E0"/>
<path d="M497.963 345.266H475.84V356.715H497.963V345.266Z" fill="#F0F0F0"/>
<path d="M361.652 338.596H339.529V356.725H361.652V338.596Z" fill="#F5F5F5"/>
<path d="M388.293 342.61H366.17V356.725H388.293V342.61Z" fill="#E0E0E0"/>
<path d="M414.943 326.312H392.82V356.725H414.943V326.312Z" fill="#F0F0F0"/>
<path d="M527.692 328.355H505.569V356.725H527.692V328.355Z" fill="#F5F5F5"/>
<path d="M554.333 338.596H532.21V356.725H554.333V338.596Z" fill="#E0E0E0"/>
<path d="M580.983 332.872H558.86V356.725H580.983V332.872Z" fill="#F0F0F0"/>
<path d="M322.416 44.8071C322.422 42.7488 323.242 40.7764 324.697 39.321C326.152 37.8656 328.125 37.0456 330.183 37.0403H572.11C574.168 37.0456 576.14 37.8656 577.596 39.321C579.051 40.7764 579.871 42.7488 579.876 44.8071V69.8076H322.416V44.8071Z" fill="#E0E0E0"/>
<path d="M379.339 53.429C379.339 54.5915 379.684 55.7278 380.33 56.6942C380.976 57.6607 381.894 58.4137 382.968 58.8581C384.042 59.3025 385.224 59.4183 386.364 59.1908C387.504 58.9632 388.551 58.4027 389.372 57.58C390.194 56.7573 390.753 55.7094 390.978 54.5691C391.204 53.4287 391.086 52.247 390.64 51.1736C390.193 50.1002 389.439 49.1833 388.471 48.5389C387.504 47.8945 386.367 47.5516 385.204 47.5536C383.648 47.5563 382.156 48.1765 381.056 49.278C379.957 50.3796 379.339 51.8725 379.339 53.429Z" fill="#F5F5F5"/>
<path d="M364.399 59.3044C367.644 59.3044 370.274 56.6739 370.274 53.429C370.274 50.1841 367.644 47.5536 364.399 47.5536C361.154 47.5536 358.524 50.1841 358.524 53.429C358.524 56.6739 361.154 59.3044 364.399 59.3044Z" fill="#F5F5F5"/>
<path d="M343.594 59.3044C346.839 59.3044 349.469 56.6739 349.469 53.429C349.469 50.1841 346.839 47.5536 343.594 47.5536C340.349 47.5536 337.718 50.1841 337.718 53.429C337.718 56.6739 340.349 59.3044 343.594 59.3044Z" fill="#F5F5F5"/>
<path d="M572.11 238.182H330.183C328.125 238.176 326.152 237.356 324.697 235.901C323.242 234.445 322.422 232.473 322.416 230.415V69.8076H579.876V230.415C579.871 232.473 579.051 234.445 577.596 235.901C576.14 237.356 574.168 238.176 572.11 238.182Z" fill="#F5F5F5"/>
<path d="M305.082 70.8037C305.09 68.7462 305.911 66.7753 307.365 65.3205C308.82 63.8657 310.791 63.0448 312.849 63.0369H554.775C556.834 63.0422 558.806 63.8622 560.261 65.3176C561.717 66.773 562.537 68.7454 562.542 70.8037V95.8042H305.082V70.8037Z" fill="#FAFAFA"/>
<path d="M362.005 79.4256C362.005 80.5876 362.349 81.7236 362.995 82.6898C363.64 83.656 364.558 84.409 365.632 84.8537C366.705 85.2984 367.887 85.4148 369.026 85.1881C370.166 84.9614 371.213 84.4018 372.035 83.5801C372.856 82.7584 373.416 81.7115 373.642 80.5718C373.869 79.4321 373.753 78.2508 373.308 77.1772C372.863 76.1036 372.11 75.186 371.144 74.5404C370.178 73.8948 369.042 73.5502 367.88 73.5502C366.322 73.5502 364.827 74.1692 363.725 75.2711C362.624 76.3729 362.005 77.8673 362.005 79.4256Z" fill="#E0E0E0"/>
<path d="M341.199 79.4256C341.199 80.5876 341.544 81.7236 342.189 82.6898C342.835 83.656 343.753 84.409 344.826 84.8537C345.9 85.2984 347.081 85.4148 348.221 85.1881C349.361 84.9614 350.408 84.4018 351.229 83.5801C352.051 82.7584 352.61 81.7115 352.837 80.5718C353.064 79.4321 352.947 78.2508 352.503 77.1772C352.058 76.1036 351.305 75.186 350.339 74.5404C349.373 73.8948 348.237 73.5502 347.075 73.5502C345.516 73.5502 344.022 74.1692 342.92 75.2711C341.818 76.3729 341.199 77.8673 341.199 79.4256Z" fill="#E0E0E0"/>
<path d="M320.394 79.4256C320.394 80.5881 320.739 81.7244 321.385 82.6908C322.031 83.6572 322.949 84.4103 324.023 84.8547C325.097 85.2991 326.279 85.4149 327.419 85.1873C328.559 84.9598 329.606 84.3993 330.427 83.5766C331.249 82.7539 331.807 81.706 332.033 80.5657C332.259 79.4253 332.141 78.2436 331.695 77.1702C331.248 76.0968 330.494 75.1799 329.526 74.5355C328.559 73.8911 327.422 73.5482 326.259 73.5502C324.703 73.5529 323.211 74.1731 322.111 75.2746C321.012 76.3762 320.394 77.8691 320.394 79.4256Z" fill="#E0E0E0"/>
<path d="M554.775 264.178H312.849C310.79 264.173 308.818 263.353 307.363 261.897C305.907 260.442 305.087 258.47 305.082 256.411V95.8042H562.542V256.411C562.537 258.47 561.717 260.442 560.261 261.897C558.806 263.353 556.834 264.173 554.775 264.178Z" fill="#E0E0E0"/>
<path d="M557.331 52.4935H196.387C193.826 52.5014 191.372 53.5209 189.559 55.3298C187.747 57.1388 186.722 59.5907 186.709 62.1516V303.062C186.717 305.626 187.739 308.082 189.553 309.893C191.367 311.705 193.824 312.725 196.387 312.731H557.331C559.892 312.723 562.347 311.701 564.158 309.89C565.97 308.079 566.991 305.624 566.999 303.062V62.1516C566.986 59.5925 565.962 57.142 564.152 55.3334C562.341 53.5247 559.89 52.504 557.331 52.4935Z" fill="#407BFF"/>
<path opacity="0.3" d="M557.331 52.4935H196.387C193.826 52.5014 191.372 53.5209 189.559 55.3298C187.747 57.1388 186.722 59.5907 186.709 62.1516V303.062C186.717 305.626 187.739 308.082 189.553 309.893C191.367 311.705 193.824 312.725 196.387 312.731H557.331C559.892 312.723 562.347 311.701 564.158 309.89C565.97 308.079 566.991 305.624 566.999 303.062V62.1516C566.986 59.5925 565.962 57.142 564.152 55.3334C562.341 53.5247 559.89 52.504 557.331 52.4935Z" fill="#F5F5F5"/>
<path d="M260.302 71.3972H205.623C204.775 71.4311 203.93 71.2935 203.137 70.9925C202.344 70.6915 201.619 70.2335 201.008 69.6458C200.396 69.0581 199.909 68.3529 199.577 67.5725C199.245 66.7921 199.073 65.9526 199.073 65.1044C199.073 64.2561 199.245 63.4166 199.577 62.6362C199.909 61.8558 200.396 61.1506 201.008 60.5629C201.619 59.9752 202.344 59.5172 203.137 59.2162C203.93 58.9152 204.775 58.7776 205.623 58.8115H260.302C261.15 58.7776 261.995 58.9152 262.788 59.2162C263.581 59.5172 264.306 59.9752 264.917 60.5629C265.529 61.1506 266.016 61.8558 266.348 62.6362C266.68 63.4166 266.852 64.2561 266.852 65.1044C266.852 65.9526 266.68 66.7921 266.348 67.5725C266.016 68.3529 265.529 69.0581 264.917 69.6458C264.306 70.2335 263.581 70.6915 262.788 70.9925C261.995 71.2935 261.15 71.4311 260.302 71.3972ZM205.623 59.8175C204.909 59.7864 204.197 59.9001 203.528 60.1517C202.859 60.4034 202.249 60.7878 201.733 61.2817C201.217 61.7757 200.806 62.3691 200.526 63.0261C200.245 63.683 200.1 64.39 200.1 65.1044C200.1 65.8187 200.245 66.5257 200.526 67.1826C200.806 67.8396 201.217 68.433 201.733 68.927C202.249 69.421 202.859 69.8054 203.528 70.057C204.197 70.3086 204.909 70.4223 205.623 70.3912H260.302C261.016 70.4223 261.728 70.3086 262.397 70.057C263.066 69.8054 263.676 69.421 264.192 68.927C264.708 68.433 265.119 67.8396 265.4 67.1826C265.68 66.5257 265.825 65.8187 265.825 65.1044C265.825 64.39 265.68 63.683 265.4 63.0261C265.119 62.3691 264.708 61.7757 264.192 61.2817C263.676 60.7878 263.066 60.4034 262.397 60.1517C261.728 59.9001 261.016 59.7864 260.302 59.8175H205.623Z" fill="#FAFAFA"/>
<path d="M286.782 71.3973H280.272C278.647 71.3323 277.11 70.6408 275.983 69.4678C274.856 68.2948 274.226 66.7311 274.226 65.1044C274.226 63.4776 274.856 61.914 275.983 60.741C277.11 59.5679 278.647 58.8765 280.272 58.8115H286.812C288.437 58.8765 289.974 59.5679 291.102 60.741C292.229 61.914 292.858 63.4776 292.858 65.1044C292.858 66.7311 292.229 68.2948 291.102 69.4678C289.974 70.6408 288.437 71.3323 286.812 71.3973H286.782ZM280.272 59.8176C278.91 59.877 277.623 60.46 276.681 61.4449C275.738 62.4299 275.211 63.7408 275.211 65.1044C275.211 66.4679 275.738 67.7789 276.681 68.7638C277.623 69.7488 278.91 70.3318 280.272 70.3912H286.812C288.174 70.3318 289.461 69.7488 290.404 68.7638C291.347 67.7789 291.873 66.4679 291.873 65.1044C291.873 63.7408 291.347 62.4299 290.404 61.4449C289.461 60.46 288.174 59.877 286.812 59.8176H280.272Z" fill="#FAFAFA"/>
<path d="M566.999 77.4939H186.709V294.38H566.999V77.4939Z" fill="#407BFF"/>
<path opacity="0.8" d="M566.999 77.4939H186.709V294.38H566.999V77.4939Z" fill="#F5F5F5"/>
<path opacity="0.9" d="M257.374 261.945C253.149 261.952 248.926 261.714 244.728 261.23C220.583 258.464 199.355 246.954 186.508 229.66C186.468 229.607 186.45 229.54 186.46 229.474C186.469 229.408 186.505 229.348 186.558 229.308C186.611 229.268 186.678 229.251 186.744 229.26C186.811 229.27 186.87 229.305 186.91 229.358C199.667 246.542 220.764 257.981 244.779 260.737C263.984 262.941 284.598 260.053 309.649 251.683C317.054 249.198 324.549 246.371 331.782 243.634C354.992 234.851 378.987 225.767 404.219 226.763C416.291 227.236 428.364 230.042 440.034 232.799C445.789 234.137 451.735 235.515 457.61 236.602C479.834 240.717 496.917 239.027 509.835 231.441C513.457 229.202 516.923 226.718 520.207 224.006C524.785 220.415 529.503 216.692 534.926 214.368C540.121 212.24 545.747 211.372 551.343 211.835C556.938 212.298 562.345 214.08 567.12 217.034C567.148 217.051 567.173 217.073 567.192 217.099C567.212 217.126 567.226 217.156 567.234 217.188C567.241 217.22 567.242 217.253 567.236 217.285C567.23 217.318 567.218 217.349 567.2 217.376C567.184 217.405 567.161 217.43 567.135 217.449C567.109 217.469 567.078 217.483 567.046 217.49C567.014 217.498 566.981 217.499 566.949 217.493C566.916 217.487 566.885 217.475 566.858 217.457C562.148 214.544 556.816 212.788 551.298 212.332C545.779 211.875 540.231 212.732 535.107 214.831C529.755 217.125 525.046 220.867 520.509 224.409C517.205 227.129 513.723 229.627 510.086 231.884C497.058 239.53 479.854 241.23 457.51 237.095C451.624 236.008 445.668 234.62 439.914 233.282C428.263 230.576 416.211 227.769 404.188 227.306C379.097 226.3 355.133 235.354 331.964 244.147C324.71 246.894 317.205 249.731 309.83 252.196C290.081 258.735 273.089 261.945 257.374 261.945Z" fill="#FAFAFA"/>
<path d="M504.311 176.389C486.353 176.389 466.997 171.953 443.888 162.566C436.473 159.548 428.968 156.188 421.754 152.928C398.615 142.505 374.62 131.731 349.529 130.926C337.457 130.543 325.464 132.485 313.814 134.366C308.05 135.292 302.094 136.258 296.208 136.922C273.864 139.467 256.67 136.529 243.642 127.958C239.999 125.442 236.518 122.701 233.219 119.748C228.631 115.875 223.933 111.851 218.571 109.124C213.633 106.655 208.177 105.4 202.656 105.463C197.136 105.526 191.71 106.905 186.83 109.487C186.77 109.516 186.702 109.522 186.639 109.504C186.575 109.485 186.521 109.443 186.488 109.386C186.472 109.357 186.462 109.325 186.458 109.292C186.454 109.259 186.457 109.226 186.467 109.194C186.476 109.162 186.492 109.133 186.513 109.107C186.533 109.081 186.559 109.06 186.588 109.044C191.54 106.432 197.042 105.036 202.64 104.972C208.238 104.907 213.771 106.175 218.782 108.672C224.195 111.378 228.923 115.432 233.491 119.366C236.772 122.306 240.237 125.034 243.863 127.535C256.781 136.047 273.874 138.954 296.098 136.419C301.973 135.755 307.919 134.799 313.673 133.863C325.344 131.982 337.416 130.04 349.479 130.423C374.681 131.238 398.685 142.023 421.915 152.465C429.169 155.725 436.664 159.095 444.049 162.103C469.099 172.275 489.693 176.621 508.919 175.786C532.924 174.78 554.011 164.82 566.767 148.552C566.79 148.528 566.817 148.509 566.848 148.495C566.878 148.482 566.911 148.476 566.944 148.476C566.977 148.476 567.009 148.482 567.039 148.495C567.07 148.509 567.097 148.528 567.12 148.552C567.146 148.572 567.168 148.596 567.185 148.625C567.202 148.653 567.213 148.685 567.218 148.717C567.222 148.75 567.221 148.783 567.212 148.815C567.204 148.847 567.19 148.878 567.17 148.904C554.323 165.283 533.095 175.283 508.939 176.329C507.43 176.359 505.871 176.389 504.311 176.389Z" fill="#407BFF"/>
<path opacity="0.7" d="M504.311 176.389C486.353 176.389 466.997 171.953 443.888 162.566C436.473 159.548 428.968 156.188 421.754 152.928C398.615 142.505 374.62 131.731 349.529 130.926C337.457 130.543 325.464 132.485 313.814 134.366C308.05 135.292 302.094 136.258 296.208 136.922C273.864 139.467 256.67 136.529 243.642 127.958C239.999 125.442 236.518 122.701 233.219 119.748C228.631 115.875 223.933 111.851 218.571 109.124C213.633 106.655 208.177 105.4 202.656 105.463C197.136 105.526 191.71 106.905 186.83 109.487C186.77 109.516 186.702 109.522 186.639 109.504C186.575 109.485 186.521 109.443 186.488 109.386C186.472 109.357 186.462 109.325 186.458 109.292C186.454 109.259 186.457 109.226 186.467 109.194C186.476 109.162 186.492 109.133 186.513 109.107C186.533 109.081 186.559 109.06 186.588 109.044C191.54 106.432 197.042 105.036 202.64 104.972C208.238 104.907 213.771 106.175 218.782 108.672C224.195 111.378 228.923 115.432 233.491 119.366C236.772 122.306 240.237 125.034 243.863 127.535C256.781 136.047 273.874 138.954 296.098 136.419C301.973 135.755 307.919 134.799 313.673 133.863C325.344 131.982 337.416 130.04 349.479 130.423C374.681 131.238 398.685 142.023 421.915 152.465C429.169 155.725 436.664 159.095 444.049 162.103C469.099 172.275 489.693 176.621 508.919 175.786C532.924 174.78 554.011 164.82 566.767 148.552C566.79 148.528 566.817 148.509 566.848 148.495C566.878 148.482 566.911 148.476 566.944 148.476C566.977 148.476 567.009 148.482 567.039 148.495C567.07 148.509 567.097 148.528 567.12 148.552C567.146 148.572 567.168 148.596 567.185 148.625C567.202 148.653 567.213 148.685 567.218 148.717C567.222 148.75 567.221 148.783 567.212 148.815C567.204 148.847 567.19 148.878 567.17 148.904C554.323 165.283 533.095 175.283 508.939 176.329C507.43 176.359 505.871 176.389 504.311 176.389Z" fill="#F5F5F5"/>
<path d="M537.29 287.599H216.418C210.342 287.591 204.517 285.174 200.221 280.878C195.925 276.581 193.508 270.757 193.5 264.681V107.203C193.508 101.127 195.925 95.3024 200.221 91.0062C204.517 86.71 210.342 84.2928 216.418 84.2849H537.29C543.366 84.2928 549.19 86.71 553.487 91.0062C557.783 95.3024 560.2 101.127 560.208 107.203V264.681C560.2 270.757 557.783 276.581 553.487 280.878C549.19 285.174 543.366 287.591 537.29 287.599ZM216.418 84.7879C210.475 84.7959 204.779 87.16 200.577 91.3619C196.375 95.5638 194.011 101.26 194.003 107.203V264.681C194.011 270.623 196.375 276.32 200.577 280.522C204.779 284.724 210.475 287.088 216.418 287.096H537.29C543.232 287.088 548.929 284.724 553.131 280.522C557.333 276.32 559.697 270.623 559.705 264.681V107.203C559.697 101.26 557.333 95.5638 553.131 91.3619C548.929 87.16 543.232 84.7959 537.29 84.7879H216.418Z" fill="#FAFAFA"/>
<path d="M233.39 210.958H214.708V294.39H233.39V210.958Z" fill="#FAFAFA"/>
<path d="M261.177 193.925H242.495V294.38H261.177V193.925Z" fill="#FAFAFA"/>
<path d="M288.955 177.204H270.272V294.39H288.955V177.204Z" fill="#FAFAFA"/>
<path d="M316.742 156.701H298.06V294.38H316.742V156.701Z" fill="#FAFAFA"/>
<path d="M344.519 185.937H325.837V294.38H344.519V185.937Z" fill="#FAFAFA"/>
<path d="M372.307 145.302H353.624V294.39H372.307V145.302Z" fill="#407BFF"/>
<path opacity="0.2" d="M372.307 145.302H353.624V294.39H372.307V145.302Z" fill="white"/>
<path d="M365.687 152.999C364.5 156.264 362.317 159.074 359.447 161.031C356.576 162.988 353.163 163.993 349.69 163.904V139.155H364.56C365.74 141.243 366.452 143.563 366.647 145.953C366.841 148.343 366.514 150.747 365.687 152.999Z" fill="#407BFF"/>
<path opacity="0.2" d="M365.687 152.999C364.5 156.264 362.317 159.074 359.447 161.031C356.576 162.988 353.163 163.993 349.69 163.904V139.155H364.56C365.74 141.243 366.452 143.563 366.647 145.953C366.841 148.343 366.514 150.747 365.687 152.999Z" fill="white"/>
<path d="M400.084 196.048H381.401V294.38H400.084V196.048Z" fill="#FAFAFA"/>
<path d="M427.871 163.069H409.189V294.39H427.871V163.069Z" fill="#FAFAFA"/>
<path d="M455.648 261.532H436.966V294.38H455.648V261.532Z" fill="#407BFF"/>
<path opacity="0.3" d="M455.648 261.532H436.966V294.38H455.648V261.532Z" fill="black"/>
<path d="M483.436 154.82H464.753V294.39H483.436V154.82Z" fill="#FAFAFA"/>
<path d="M511.213 116.127H492.53V294.39H511.213V116.127Z" fill="#407BFF"/>
<path opacity="0.2" d="M511.213 116.127H492.53V294.39H511.213V116.127Z" fill="white"/>
<path d="M539 198.724H520.318V294.38H539V198.724Z" fill="#FAFAFA"/>
<path d="M129.697 284.884H67.8867V559.908H129.697V284.884Z" fill="#407BFF"/>
<path opacity="0.7" d="M129.697 284.884H67.8867V559.908H129.697V284.884Z" fill="#FAFAFA"/>
<path d="M224.259 193.977H162.449V559.895H224.259V193.977Z" fill="#407BFF"/>
<path opacity="0.1" d="M224.259 193.977H162.449V559.895H224.259V193.977Z" fill="black"/>
<path d="M318.833 284.884H257.023V559.908H318.833V284.884Z" fill="#407BFF"/>
<path opacity="0.4" d="M318.833 284.884H257.023V559.908H318.833V284.884Z" fill="black"/>
<path d="M107.768 284.884H45.9578V559.908H107.768V284.884Z" fill="#407BFF"/>
<path opacity="0.8" d="M107.768 284.884H45.9578V559.908H107.768V284.884Z" fill="#FAFAFA"/>
<path d="M202.343 193.977H140.533V559.895H202.343V193.977Z" fill="#407BFF"/>
<path opacity="0.2" d="M202.343 193.977H140.533V559.895H202.343V193.977Z" fill="#FAFAFA"/>
<path d="M296.904 284.884H235.094V559.908H296.904V284.884Z" fill="#407BFF"/>
<path opacity="0.2" d="M296.904 284.884H235.094V559.908H296.904V284.884Z" fill="black"/>
<path d="M528.097 433.714H526.81C526.778 409.991 520.244 386.73 507.918 366.46L509.025 365.791C521.467 386.265 528.063 409.756 528.097 433.714ZM500.763 355.933C497.132 351.131 493.167 346.589 488.898 342.344L489.811 341.443C494.128 345.742 498.132 350.343 501.792 355.213L500.763 355.933Z" fill="#407BFF"/>
<path opacity="0.3" d="M528.097 433.714H526.81C526.778 409.991 520.244 386.73 507.918 366.46L509.025 365.791C521.467 386.265 528.063 409.756 528.097 433.714ZM500.763 355.933C497.132 351.131 493.167 346.589 488.898 342.344L489.811 341.443C494.128 345.742 498.132 350.343 501.792 355.213L500.763 355.933Z" fill="black"/>
<path d="M486.633 344.557C462.973 320.906 430.892 307.612 397.437 307.597H379.228V308.948C363.439 311.252 348.23 316.527 334.405 324.494C274.461 359.073 253.6 436.867 288.179 496.772C297.703 513.278 310.843 527.412 326.612 538.11C342.382 548.809 360.371 555.795 379.228 558.544V559.831H397.463C422.417 559.843 446.814 552.452 467.565 538.593C488.317 524.734 504.491 505.031 514.04 481.976C523.59 458.922 526.085 433.553 521.211 409.08C516.337 384.606 504.312 362.129 486.659 344.493L486.633 344.557ZM397.437 526.989C378.995 526.991 360.966 521.525 345.63 511.281C330.294 501.038 318.34 486.477 311.28 469.439C304.219 452.402 302.369 433.654 305.964 415.565C309.558 397.476 318.436 380.86 331.474 367.816C344.512 354.773 361.125 345.888 379.212 342.286C397.299 338.684 416.048 340.527 433.089 347.58C450.129 354.634 464.695 366.582 474.945 381.913C485.195 397.245 490.669 415.272 490.674 433.714C490.706 445.969 488.317 458.109 483.643 469.438C478.969 480.767 472.103 491.06 463.44 499.727C454.776 508.395 444.485 515.265 433.158 519.943C421.832 524.622 409.692 527.016 397.437 526.989Z" fill="#407BFF"/>
<path opacity="0.3" d="M486.633 344.557C462.973 320.906 430.892 307.612 397.437 307.597H379.228V308.948C363.439 311.252 348.23 316.527 334.405 324.494C274.461 359.073 253.6 436.867 288.179 496.772C297.703 513.278 310.843 527.412 326.612 538.11C342.382 548.809 360.371 555.795 379.228 558.544V559.831H397.463C422.417 559.843 446.814 552.452 467.565 538.593C488.317 524.734 504.491 505.031 514.04 481.976C523.59 458.922 526.085 433.553 521.211 409.08C516.337 384.606 504.312 362.129 486.659 344.493L486.633 344.557ZM397.437 526.989C378.995 526.991 360.966 521.525 345.63 511.281C330.294 501.038 318.34 486.477 311.28 469.439C304.219 452.402 302.369 433.654 305.964 415.565C309.558 397.476 318.436 380.86 331.474 367.816C344.512 354.773 361.125 345.888 379.212 342.286C397.299 338.684 416.048 340.527 433.089 347.58C450.129 354.634 464.695 366.582 474.945 381.913C485.195 397.245 490.669 415.272 490.674 433.714C490.706 445.969 488.317 458.109 483.643 469.438C478.969 480.767 472.103 491.06 463.44 499.727C454.776 508.395 444.485 515.265 433.158 519.943C421.832 524.622 409.692 527.016 397.437 526.989Z" fill="black"/>
<path d="M472.438 433.714H505.344C505.369 461.497 496.218 488.51 479.314 510.559C462.41 532.608 438.698 548.457 411.861 555.646C385.024 562.835 356.564 560.961 330.902 550.315C305.24 539.669 283.811 520.847 269.944 496.772L298.461 480.313C308.717 498.094 324.555 511.993 343.518 519.853C362.48 527.713 383.506 529.095 403.334 523.784C423.162 518.473 440.683 506.767 453.178 490.481C465.672 474.195 472.443 454.241 472.438 433.714Z" fill="#407BFF"/>
<path opacity="0.2" d="M472.438 433.714H505.344C505.369 461.497 496.218 488.51 479.314 510.559C462.41 532.608 438.698 548.457 411.861 555.646C385.024 562.835 356.564 560.961 330.902 550.315C305.24 539.669 283.811 520.847 269.944 496.772L298.461 480.313C308.717 498.094 324.555 511.993 343.518 519.853C362.48 527.713 383.506 529.095 403.334 523.784C423.162 518.473 440.683 506.767 453.178 490.481C465.672 474.195 472.443 454.241 472.438 433.714Z" fill="#FAFAFA"/>
<path d="M379.228 307.597C412.67 307.618 444.736 320.912 468.383 344.559C492.03 368.206 505.324 400.272 505.344 433.714H472.438C472.425 408.997 462.6 385.297 445.122 367.819C427.645 350.342 403.944 340.517 379.228 340.503V307.597Z" fill="#407BFF"/>
<path d="M379.228 307.597V340.503C362.862 340.498 346.782 344.803 332.608 352.983C318.433 361.164 306.661 372.933 298.478 387.106C290.294 401.279 285.987 417.357 285.988 433.723C285.99 450.09 290.301 466.167 298.487 480.339L269.944 496.772C235.365 436.841 256.212 359.073 316.144 324.469C335.329 313.412 357.084 307.594 379.228 307.597Z" fill="#407BFF"/>
<path opacity="0.8" d="M379.228 307.597V340.503C362.862 340.498 346.782 344.803 332.608 352.983C318.433 361.164 306.661 372.933 298.478 387.106C290.294 401.279 285.987 417.357 285.988 433.723C285.99 450.09 290.301 466.167 298.487 480.339L269.944 496.772C235.365 436.841 256.212 359.073 316.144 324.469C335.329 313.412 357.084 307.594 379.228 307.597Z" fill="#FAFAFA"/>
<path d="M348.303 395.66L338.188 401.58L322.939 379.072L333.054 373.152L348.303 395.66Z" fill="#E4897B"/>
<path d="M332.565 395.184L343.658 388.119C343.846 387.992 344.075 387.938 344.301 387.969C344.526 388 344.733 388.113 344.88 388.286L351.739 396.265C351.903 396.472 352.022 396.711 352.088 396.967C352.154 397.223 352.165 397.49 352.122 397.751C352.078 398.012 351.98 398.26 351.835 398.481C351.689 398.701 351.499 398.889 351.276 399.032C347.415 401.425 345.356 402.39 340.479 405.466C337.468 407.371 331.471 411.643 327.314 414.294C323.157 416.945 320.339 413.007 321.832 411.502C328.511 404.9 330.094 400.666 331.303 396.805C331.526 396.137 331.971 395.565 332.565 395.184Z" fill="#263238"/>
<path d="M327.481 400.139H327.185C326.949 400.097 326.726 400 326.536 399.854C326.346 399.709 326.193 399.519 326.091 399.302C326.021 399.181 325.984 399.043 325.984 398.903C325.984 398.763 326.021 398.626 326.091 398.504C326.863 397.102 332.037 396.613 332.629 396.561C332.669 396.556 332.711 396.564 332.746 396.585C332.781 396.606 332.808 396.639 332.822 396.677C332.846 396.708 332.859 396.747 332.859 396.786C332.859 396.826 332.846 396.864 332.822 396.896C331.483 398.131 329.128 400.139 327.481 400.139ZM332.088 396.999C330.287 397.205 326.941 397.758 326.439 398.685C326.4 398.749 326.38 398.822 326.38 398.897C326.38 398.972 326.4 399.045 326.439 399.109C326.511 399.272 326.623 399.414 326.765 399.522C326.906 399.63 327.073 399.701 327.25 399.727C328.24 399.894 330.029 398.878 332.088 396.999Z" fill="#407BFF"/>
<path d="M331.985 396.986C330.274 396.986 327.481 396.368 327.031 395.326C326.915 395.055 326.889 394.644 327.455 394.206C327.662 394.037 327.901 393.913 328.158 393.842C328.415 393.771 328.684 393.755 328.948 393.794C330.814 394.039 332.719 396.523 332.809 396.625C332.827 396.654 332.837 396.688 332.837 396.722C332.837 396.756 332.827 396.79 332.809 396.819C332.799 396.849 332.781 396.877 332.755 396.897C332.73 396.918 332.7 396.931 332.667 396.934C332.442 396.972 332.214 396.989 331.985 396.986ZM328.665 394.167C328.313 394.167 327.971 394.29 327.7 394.515C327.25 394.862 327.353 395.094 327.391 395.171C327.739 395.982 330.57 396.69 332.269 396.587C331.422 395.453 330.244 394.612 328.897 394.18L328.665 394.167Z" fill="#407BFF"/>
<path d="M376.152 220.731C375.959 221.748 375.805 222.469 375.612 223.305L375.007 225.686C374.582 227.269 374.132 228.813 373.72 230.357C372.742 233.433 371.661 236.444 370.515 239.366C369.37 242.287 368.109 245.285 366.809 248.181C366.166 249.635 365.522 251.064 364.776 252.492L364.248 253.573L363.952 254.165C363.811 254.461 363.656 254.757 363.489 255.04C362.865 256.102 362.108 257.079 361.237 257.949C359.725 259.421 357.987 260.642 356.089 261.565C354.432 262.377 352.71 263.048 350.942 263.572C347.699 264.514 344.378 265.16 341.02 265.503C334.602 266.17 328.133 266.17 321.716 265.503L321.819 259.454C324.753 259.132 327.816 258.798 330.827 258.296C333.839 257.794 336.734 257.292 339.591 256.623C342.358 255.982 345.069 255.122 347.699 254.049C349.854 253.301 351.808 252.068 353.412 250.446C353.621 250.203 353.79 249.93 353.914 249.635L354.571 247.949C355.137 246.547 355.665 245.131 356.192 243.715C357.273 240.897 358.251 238.04 359.242 235.209C360.233 232.378 361.134 229.508 361.957 226.651C362.395 225.223 362.807 223.807 363.244 222.391L363.798 220.268L364.274 218.312L376.152 220.731Z" fill="#E4897B"/>
<path d="M367.98 205.687C363.154 206.974 359.77 226.78 359.77 226.78L373.076 235.788C373.076 235.788 385.829 215.751 382.085 210.449C378.25 204.954 375.019 203.898 367.98 205.687Z" fill="#407BFF"/>
<path opacity="0.6" d="M367.98 205.687C363.154 206.974 359.77 226.78 359.77 226.78L373.076 235.788C373.076 235.788 385.829 215.751 382.085 210.449C378.25 204.954 375.019 203.898 367.98 205.687Z" fill="#FAFAFA"/>
<path d="M367.543 212.907L377.838 215.3L378.829 225.403C377.077 228.973 375.144 232.453 373.038 235.827L365.072 230.383C365.355 225.699 366.23 216.047 367.543 212.907Z" fill="#407BFF"/>
<path opacity="0.3" d="M367.543 212.907L377.838 215.3L378.829 225.403C377.077 228.973 375.144 232.453 373.038 235.827L365.072 230.383C365.355 225.699 366.23 216.047 367.543 212.907Z" fill="#FAFAFA"/>
<path d="M323.518 259.441L315.217 250.973L314.123 262.839C314.123 262.839 320.352 267.047 324.663 264.782L323.518 259.441Z" fill="#E4897B"/>
<path d="M305.449 249.764L305.063 259.75L314.123 262.89L315.204 251.025L305.449 249.764Z" fill="#E4897B"/>
<path d="M302.901 398.865L294.588 390.616L310.996 368.7L319.309 376.936L302.901 398.865Z" fill="#E4897B"/>
<path d="M299.247 384.812L311.241 390.242C311.45 390.329 311.619 390.49 311.714 390.695C311.809 390.9 311.824 391.134 311.755 391.349L308.834 401.451C308.751 401.703 308.616 401.935 308.438 402.131C308.259 402.327 308.042 402.484 307.799 402.591C307.557 402.697 307.294 402.752 307.029 402.751C306.764 402.75 306.502 402.693 306.26 402.584C302.116 400.615 300.212 399.457 294.935 397.076C291.692 395.609 283.225 392.173 278.746 390.152C274.268 388.132 276.031 383.589 278.077 384.027C287.265 386.021 293.288 385.751 297.175 384.657C297.862 384.468 298.594 384.523 299.247 384.812Z" fill="#263238"/>
<path d="M322.951 379.072L330.814 390.68L340.929 384.76L333.066 373.165L322.951 379.072Z" fill="#CE6F64"/>
<path d="M319.309 376.936L310.983 368.7L302.528 379.999L310.854 388.248L319.309 376.936Z" fill="#CE6F64"/>
<path d="M421.142 276.39H373.527C362.343 207.656 367.929 205.7 367.929 205.7C367.929 205.7 375.586 204.13 383.603 203.126C384.98 202.959 386.357 202.804 387.721 202.676C394.914 202.16 402.135 202.16 409.328 202.676C410.692 202.74 412.057 202.843 413.395 202.959C418.81 203.449 424.194 204.244 429.52 205.34C420.318 245.092 420.409 257.022 421.142 276.39Z" fill="#407BFF"/>
<path opacity="0.6" d="M421.142 276.39H373.527C362.343 207.656 367.929 205.7 367.929 205.7C367.929 205.7 375.586 204.13 383.603 203.126C384.98 202.959 386.357 202.804 387.721 202.676C394.914 202.16 402.135 202.16 409.328 202.676C410.692 202.74 412.057 202.843 413.395 202.959C418.81 203.449 424.194 204.244 429.52 205.34C420.318 245.092 420.409 257.022 421.142 276.39Z" fill="#FAFAFA"/>
<path d="M413.447 202.972L412.932 204.182C412.661 204.851 406.034 220.422 393.191 230.821L390.051 233.394L387.644 230.139C380.425 220.358 382.587 207.643 383.655 203.178C385.032 203.011 386.409 202.856 387.773 202.728C394.966 202.212 402.187 202.212 409.38 202.728C410.744 202.753 412.108 202.856 413.447 202.972Z" fill="#407BFF"/>
<path opacity="0.1" d="M413.447 202.972L412.932 204.182C412.661 204.851 406.034 220.422 393.191 230.821L390.051 233.394L387.644 230.139C380.425 220.358 382.587 207.643 383.655 203.178C385.032 203.011 386.409 202.856 387.773 202.728C394.966 202.212 402.187 202.212 409.38 202.728C410.744 202.753 412.108 202.856 413.447 202.972Z" fill="#FAFAFA"/>
<path d="M385.443 143.44C375.045 138.794 368.791 156.463 369.499 168.972C370.206 181.481 372.072 196.821 366.59 194.247C361.108 191.673 364.994 187.812 364.994 187.812C364.994 187.812 357.273 193.925 366.037 197.284C374.801 200.643 390.385 200.321 399.496 195.997C404.708 188.134 402.469 158.741 402.469 158.741L385.443 143.44Z" fill="#263238"/>
<path d="M407.231 178.366C405.879 185.316 404.515 198.056 409.38 202.689C409.38 202.689 402.945 217.913 390.758 227.809C383.114 217.45 387.773 202.689 387.773 202.689C395.494 200.836 395.327 195.083 393.976 189.691L407.231 178.366Z" fill="#E4897B"/>
<path d="M401.826 182.986L393.976 189.678C394.316 190.942 394.54 192.234 394.645 193.539C397.605 193.114 401.671 189.858 401.993 186.757C402.17 185.5 402.113 184.222 401.826 182.986Z" fill="#CE6F64"/>
<path d="M408.054 160.054C409.341 171.636 410.203 176.462 405.481 183.347C398.377 193.719 383.899 192.844 379.138 181.931C374.852 172.112 373.372 154.906 383.745 148.33C386.024 146.873 388.638 146.023 391.338 145.862C394.038 145.701 396.735 146.233 399.171 147.408C401.608 148.583 403.703 150.362 405.258 152.575C406.813 154.789 407.775 157.363 408.054 160.054Z" fill="#E4897B"/>
<path d="M385.032 152.101C389.188 156.978 401.762 171.173 410.538 169.332C419.547 167.441 419.855 150.672 408.994 143.736C398.132 136.799 373.874 139.013 385.032 152.101Z" fill="#263238"/>
<path d="M411.066 131.742C402.791 129.001 402.057 137.082 402.701 142.114L412.867 149.591C416.116 149.078 419.262 148.049 422.185 146.541C426.174 144.263 419.34 134.483 411.066 131.742Z" fill="#263238"/>
<path d="M412.932 169.976C412.692 172.202 411.621 174.257 409.933 175.728C407.668 177.646 405.416 175.947 405.094 173.154C404.811 170.658 405.648 166.72 408.376 165.806C411.104 164.892 413.189 167.247 412.932 169.976Z" fill="#E4897B"/>
<path d="M327.121 326.901C326.773 337.351 329.965 350.065 333.465 360.669C334.212 362.934 334.971 365.109 335.717 367.104C338.909 375.803 341.766 381.865 341.766 381.865L327.751 389.843C327.751 389.843 325.847 387.45 323.041 383.242C321.754 381.388 320.39 379.162 318.885 376.64C311.034 363.513 300.765 342.061 300.276 319.231C299.504 283.506 373.552 276.39 373.552 276.39H408.569L398.763 304.251C398.763 304.251 327.751 307.893 327.121 326.901Z" fill="#407BFF"/>
<path opacity="0.6" d="M327.121 326.901C326.773 337.351 329.965 350.065 333.465 360.669C334.212 362.934 334.971 365.109 335.717 367.104C338.909 375.803 341.766 381.865 341.766 381.865L327.751 389.843C327.751 389.843 325.847 387.45 323.041 383.242C321.754 381.388 320.39 379.162 318.885 376.64C311.034 363.513 300.765 342.061 300.276 319.231C299.504 283.506 373.552 276.39 373.552 276.39H408.569L398.763 304.251C398.763 304.251 327.751 307.893 327.121 326.901Z" fill="black"/>
<path d="M335.717 367.168C333.89 370.205 328.948 377.939 323.067 383.241C321.78 381.388 320.416 379.162 318.91 376.64L333.465 360.708C334.186 362.934 334.971 365.148 335.717 367.168Z" fill="#263238"/>
<path d="M347.776 297.302L346.283 312.487C335.988 315.73 327.957 320.209 327.172 326.206C325.422 312.745 334.791 304.843 347.776 297.302Z" fill="#263238"/>
<path d="M386.138 276.377C386.138 276.377 342.306 294.265 335.627 314.032C327.108 339.255 303.944 374.902 303.944 374.902L313.673 387.565C313.673 387.565 340.415 361.647 358.637 331.971C381.467 294.651 436.469 334.069 421.207 276.377H386.138Z" fill="#407BFF"/>
<path opacity="0.6" d="M386.138 276.377C386.138 276.377 342.306 294.265 335.627 314.032C327.108 339.255 303.944 374.902 303.944 374.902L313.673 387.565C313.673 387.565 340.415 361.647 358.637 331.971C381.467 294.651 436.469 334.069 421.207 276.377H386.138Z" fill="black"/>
<path d="M391.299 166.347C391.466 167.273 391.106 168.123 390.501 168.226C389.896 168.328 389.214 167.672 389.098 166.733C388.982 165.793 389.291 164.97 389.896 164.854C390.501 164.738 391.131 165.42 391.299 166.347Z" fill="#263238"/>
<path d="M380.785 168.226C380.952 169.152 380.592 170.001 379.987 170.104C379.382 170.207 378.7 169.551 378.584 168.624C378.468 167.698 378.777 166.849 379.382 166.733C379.987 166.617 380.617 167.325 380.785 168.226Z" fill="#263238"/>
<path d="M379.665 166.746L377.31 166.501C377.31 166.501 378.777 168.033 379.665 166.746Z" fill="#263238"/>
<path d="M383.848 169.332C383.399 171.6 382.642 173.795 381.596 175.857C382.134 176.107 382.72 176.236 383.314 176.236C383.907 176.236 384.493 176.107 385.032 175.857L383.848 169.332Z" fill="#DE5753"/>
<path d="M390.385 178.302C390.349 178.3 390.315 178.288 390.285 178.268C390.256 178.247 390.232 178.219 390.218 178.186C390.201 178.142 390.203 178.093 390.222 178.049C390.241 178.006 390.277 177.972 390.321 177.955C392.082 177.1 393.459 175.617 394.182 173.798C394.189 173.776 394.2 173.757 394.215 173.74C394.23 173.723 394.249 173.709 394.269 173.7C394.289 173.69 394.312 173.685 394.334 173.684C394.357 173.683 394.379 173.687 394.4 173.695C394.445 173.712 394.481 173.746 394.503 173.788C394.524 173.831 394.529 173.88 394.516 173.926C393.752 175.849 392.284 177.409 390.411 178.289L390.385 178.302Z" fill="#263238"/>
<path d="M392.47 162.177C392.38 162.178 392.293 162.146 392.226 162.087C391.7 161.591 391.065 161.224 390.372 161.016C389.68 160.809 388.948 160.765 388.236 160.89C388.191 160.904 388.144 160.908 388.098 160.903C388.051 160.898 388.006 160.884 387.965 160.861C387.924 160.838 387.889 160.807 387.86 160.77C387.831 160.733 387.81 160.691 387.799 160.646C387.775 160.555 387.787 160.459 387.832 160.377C387.878 160.296 387.954 160.235 388.043 160.208C388.872 160.033 389.731 160.058 390.548 160.282C391.365 160.506 392.117 160.922 392.74 161.495C392.806 161.562 392.842 161.652 392.842 161.746C392.842 161.84 392.806 161.93 392.74 161.997C392.713 162.047 392.675 162.089 392.628 162.12C392.58 162.152 392.526 162.171 392.47 162.177Z" fill="#263238"/>
<path d="M375.045 164.043H374.917C374.83 164.004 374.761 163.932 374.725 163.843C374.689 163.755 374.689 163.656 374.724 163.567C375.044 162.782 375.548 162.085 376.192 161.534C376.837 160.983 377.604 160.595 378.43 160.401C378.522 160.386 378.616 160.408 378.693 160.462C378.769 160.516 378.82 160.599 378.835 160.691C378.851 160.783 378.829 160.877 378.774 160.953C378.72 161.029 378.638 161.081 378.546 161.096C377.839 161.274 377.183 161.616 376.633 162.094C376.083 162.573 375.654 163.174 375.38 163.85C375.348 163.911 375.3 163.961 375.241 163.995C375.181 164.029 375.114 164.046 375.045 164.043Z" fill="#263238"/>
<path d="M297.792 385.777C296.274 385.481 293.648 384.786 293.069 383.447C292.975 383.209 292.943 382.95 292.977 382.695C293.011 382.441 293.109 382.199 293.262 381.993C293.335 381.858 293.442 381.744 293.573 381.665C293.705 381.586 293.855 381.543 294.009 381.543C295.463 381.543 297.741 385.069 297.985 385.481C298.006 385.511 298.018 385.547 298.018 385.584C298.018 385.621 298.006 385.656 297.985 385.687C297.963 385.717 297.934 385.741 297.901 385.757C297.867 385.773 297.829 385.779 297.792 385.777ZM293.932 381.916C293.844 381.917 293.759 381.942 293.684 381.987C293.609 382.032 293.548 382.097 293.507 382.173C293.392 382.329 293.318 382.51 293.291 382.701C293.264 382.892 293.285 383.087 293.352 383.267C293.7 384.052 295.167 384.786 297.329 385.262C296.505 384.065 294.871 381.916 293.932 381.916Z" fill="#407BFF"/>
<path d="M297.792 385.777C297.763 385.776 297.733 385.768 297.707 385.755C297.68 385.742 297.657 385.723 297.638 385.7C296.801 384.554 296.055 381.491 296.776 380.475C296.895 380.309 297.068 380.19 297.265 380.138C297.462 380.086 297.672 380.105 297.857 380.192C298.051 380.244 298.23 380.341 298.379 380.475C298.529 380.609 298.645 380.777 298.719 380.964C299.401 382.482 298.037 385.532 297.972 385.661C297.958 385.691 297.937 385.718 297.91 385.738C297.883 385.758 297.851 385.772 297.818 385.777H297.792ZM297.458 380.513C297.384 380.51 297.311 380.527 297.246 380.56C297.18 380.594 297.125 380.645 297.085 380.706C296.544 381.466 297.085 383.962 297.767 385.159C298.088 384.323 298.848 382.212 298.359 381.131C298.304 380.994 298.219 380.872 298.11 380.774C298 380.676 297.87 380.604 297.728 380.565C297.642 380.531 297.55 380.514 297.458 380.513Z" fill="#407BFF"/>
<path d="M390.179 164.867L387.824 164.622C387.824 164.622 389.291 166.154 390.179 164.867Z" fill="#263238"/>
<path d="M421.863 273.597L422.236 277.844C422.403 278.179 422.017 278.513 421.464 278.513H373.334C372.909 278.513 372.549 278.307 372.523 278.037L372.098 273.777C372.098 273.481 372.446 273.237 372.909 273.237H421.078C421.229 273.224 421.38 273.25 421.518 273.314C421.655 273.377 421.774 273.474 421.863 273.597Z" fill="#407BFF"/>
<path opacity="0.2" d="M421.863 273.597L422.236 277.844C422.403 278.179 422.017 278.513 421.464 278.513H373.334C372.909 278.513 372.549 278.307 372.523 278.037L372.098 273.777C372.098 273.481 372.446 273.237 372.909 273.237H421.078C421.229 273.224 421.38 273.25 421.518 273.314C421.655 273.377 421.774 273.474 421.863 273.597Z" fill="#FAFAFA"/>
<path d="M415.39 278.977H416.677C416.934 278.977 417.127 278.848 417.114 278.681L416.509 273.147C416.509 272.992 416.265 272.851 416.007 272.851H414.721C414.463 272.851 414.27 272.992 414.283 273.147L414.888 278.681C414.901 278.848 415.132 278.977 415.39 278.977Z" fill="#407BFF"/>
<path opacity="0.6" d="M415.39 278.977H416.677C416.934 278.977 417.127 278.848 417.114 278.681L416.509 273.147C416.509 272.992 416.265 272.851 416.007 272.851H414.721C414.463 272.851 414.27 272.992 414.283 273.147L414.888 278.681C414.901 278.848 415.132 278.977 415.39 278.977Z" fill="black"/>
<path d="M376.963 278.977H378.25C378.507 278.977 378.713 278.848 378.687 278.681L378.082 273.147C378.082 272.992 377.838 272.851 377.58 272.851H376.294C376.036 272.851 375.843 272.992 375.856 273.147L376.461 278.681C376.487 278.848 376.654 278.977 376.963 278.977Z" fill="#407BFF"/>
<path opacity="0.6" d="M376.963 278.977H378.25C378.507 278.977 378.713 278.848 378.687 278.681L378.082 273.147C378.082 272.992 377.838 272.851 377.58 272.851H376.294C376.036 272.851 375.843 272.992 375.856 273.147L376.461 278.681C376.487 278.848 376.654 278.977 376.963 278.977Z" fill="black"/>
<path d="M396.176 278.977H397.463C397.72 278.977 397.914 278.848 397.901 278.681L397.296 273.147C397.296 272.992 397.051 272.851 396.794 272.851H395.507C395.25 272.851 395.057 272.992 395.069 273.147L395.674 278.681C395.7 278.848 395.957 278.977 396.176 278.977Z" fill="#407BFF"/>
<path opacity="0.6" d="M396.176 278.977H397.463C397.72 278.977 397.914 278.848 397.901 278.681L397.296 273.147C397.296 272.992 397.051 272.851 396.794 272.851H395.507C395.25 272.851 395.057 272.992 395.069 273.147L395.674 278.681C395.7 278.848 395.957 278.977 396.176 278.977Z" fill="black"/>
<path d="M418.388 223.794L424.527 229.019C423.24 235.968 422.339 241.759 421.773 246.907C420.627 241.746 417.706 227.809 418.388 223.794Z" fill="#407BFF"/>
<path opacity="0.3" d="M418.388 223.794L424.527 229.019C423.24 235.968 422.339 241.759 421.773 246.907C420.627 241.746 417.706 227.809 418.388 223.794Z" fill="#FAFAFA"/>
<path d="M288.334 243.509H371.828L383.925 292.798H300.443L288.334 243.509Z" fill="#FAFAFA"/>
<path d="M330.634 283.622L381.698 295.526L414.463 286.351L414.128 283.622H330.634Z" fill="#FAFAFA"/>
<path d="M285.773 243.509H369.254L381.351 292.798H297.87L285.773 243.509Z" fill="#407BFF"/>
<path opacity="0.2" d="M285.773 243.509H369.254L381.351 292.798H297.87L285.773 243.509Z" fill="#FAFAFA"/>
<path d="M297.87 292.798L298.204 295.526H381.699L381.351 292.798H297.87Z" fill="#407BFF"/>
<path opacity="0.2" d="M297.87 292.798L298.204 295.526H381.699L381.351 292.798H297.87Z" fill="#FAFAFA"/>
<path d="M434.063 218.428C436.428 225.34 438.43 232.372 440.06 239.494C440.909 243.072 441.617 246.688 442.157 250.446C442.428 252.325 442.646 254.242 442.762 256.25C442.762 257.254 442.839 258.283 442.762 259.364V260.201V260.651L442.698 261.269C442.602 262.068 442.43 262.857 442.183 263.624C441.306 266.141 439.81 268.398 437.833 270.187C436.256 271.648 434.53 272.942 432.686 274.048C429.367 276.018 425.873 277.677 422.249 279.002C418.736 280.289 415.197 281.383 411.658 282.348C408.119 283.313 404.58 284.06 400.886 284.652L399.432 278.771C402.662 277.587 405.995 276.338 409.187 274.91C412.378 273.482 415.621 272.169 418.607 270.612C421.558 269.159 424.386 267.467 427.062 265.554C428.229 264.719 429.307 263.766 430.279 262.71C430.93 262.053 431.415 261.25 431.695 260.368C431.702 259.279 431.629 258.191 431.476 257.112C431.283 255.555 431 253.933 430.691 252.286C430.035 249.005 429.185 245.659 428.336 242.3C427.487 238.941 426.47 235.582 425.466 232.236C424.462 228.89 423.433 225.493 422.429 222.224L434.063 218.428Z" fill="#E4897B"/>
<path d="M429.571 205.353C434.346 206.794 441.643 225.506 441.643 225.506L423.15 238.722C423.15 238.722 414.836 222.726 416.831 216.575C418.916 210.153 424.141 203.693 429.571 205.353Z" fill="#407BFF"/>
<path opacity="0.6" d="M429.571 205.353C434.346 206.794 441.643 225.506 441.643 225.506L423.15 238.722C423.15 238.722 414.836 222.726 416.831 216.575C418.916 210.153 424.141 203.693 429.571 205.353Z" fill="#FAFAFA"/>
<path d="M401.864 279.195L390.81 276.377L396.099 287.058C396.099 287.058 403.615 287.38 406.098 283.197L401.864 279.195Z" fill="#E4897B"/>
<path d="M381.789 280.444L386.692 289.13L396.048 287.058L390.758 276.39L381.789 280.444Z" fill="#E4897B"/>
<path d="M274.968 41.4381L233.53 3.05176e-05H201.251L237.075 35.8249H227.217V81.7722H265.11V41.4381H274.968Z" fill="#407BFF"/>
<path opacity="0.4" d="M274.968 41.4381L233.53 3.05176e-05H201.251L237.075 35.8249H227.217V81.7722H265.11V41.4381H274.968Z" fill="white"/>
<path d="M242.689 41.4381L201.251 3.05176e-05L159.813 41.4381H175.284V81.7722H227.217V41.4381H242.689Z" fill="#407BFF"/>
<path opacity="0.7" d="M242.689 41.4381L201.251 3.05176e-05L159.813 41.4381H175.284V81.7722H227.217V41.4381H242.689Z" fill="white"/>
<path d="M301.65 206.848L260.212 165.394H227.933L263.758 201.219H253.899V247.167H291.792V206.848H301.65Z" fill="#407BFF"/>
<path opacity="0.4" d="M301.65 206.848L260.212 165.394H227.933L263.758 201.219H253.899V247.167H291.792V206.848H301.65Z" fill="white"/>
<path d="M269.371 206.848L227.933 165.394L186.495 206.848H201.95V247.167H253.899V206.848H269.371Z" fill="#407BFF"/>
<path opacity="0.7" d="M269.371 206.848L227.933 165.394L186.495 206.848H201.95V247.167H253.899V206.848H269.371Z" fill="white"/>
<path d="M115.156 249.934L73.7022 208.496H41.438L77.2629 244.306H67.4049V290.269H105.298V249.934H115.156Z" fill="#407BFF"/>
<path opacity="0.4" d="M115.156 249.934L73.7022 208.496H41.438L77.2629 244.306H67.4049V290.269H105.298V249.934H115.156Z" fill="white"/>
<path d="M82.8761 249.934L41.438 208.496L0 249.934H15.4557V290.253H67.4049V249.934H82.8761Z" fill="#407BFF"/>
<path opacity="0.7" d="M82.8761 249.934L41.438 208.496L0 249.934H15.4557V290.253H67.4049V249.934H82.8761Z" fill="white"/>
<path d="M112.684 110.693H90.3863L87.1988 107.521L61.3097 59.3193L112.684 110.693Z" fill="#2F54C6"/>
<path d="M90.3084 157.511H137.282V100.54H90.3084V157.511Z" fill="#407BFF"/>
<path opacity="0.3" d="M90.3084 157.511H137.282V100.54H90.3084V157.511Z" fill="black"/>
<path d="M109.496 107.521H149.519L98.1296 56.1317H58.1221L109.496 107.521Z" fill="#407BFF"/>
<path opacity="0.3" d="M109.496 107.521H149.519L98.1296 56.1317H58.1221L109.496 107.521Z" fill="black"/>
<path d="M90.3085 93.1073V157.511H25.9202V93.1073L58.1221 61.8383L58.4486 62.1648L61.3096 64.9326L90.3085 93.1073Z" fill="#407BFF"/>
<path opacity="0.3" d="M61.3096 59.3193V81.6165L32.2175 110.693H25.9202V94.7087L58.4486 62.1647L61.3096 59.3193Z" fill="black"/>
<path d="M109.496 107.521H87.1987L58.1221 78.429V56.1317L109.496 107.521Z" fill="#407BFF"/>
<path d="M6.73277 107.521H29.03L58.1222 78.429V56.1317L6.73277 107.521Z" fill="#407BFF"/>
<path d="M222.28 391.372C222.222 385.053 220.396 378.843 216.962 373.282C213.528 367.721 208.59 362.978 202.577 359.467C196.565 355.955 189.661 353.782 182.467 353.135C175.272 352.489 168.007 353.389 161.302 355.758C156.425 347.027 148.563 339.836 138.803 335.181C129.042 330.526 117.867 328.637 106.824 329.775C95.7806 330.914 85.4156 335.024 77.1637 341.536C68.9118 348.049 63.1811 356.641 60.7648 366.124C49.0077 367.025 38.0921 371.826 30.2627 379.542C22.4332 387.258 18.2848 397.302 18.6707 407.608C19.0566 417.914 23.9473 427.699 32.3372 434.951C40.7271 442.204 51.9785 446.372 63.7778 446.599H210.634C218.237 446.526 225.575 444.146 231.392 439.867C237.208 435.588 241.141 429.675 242.517 423.141C243.893 416.607 242.627 409.858 238.935 404.05C235.243 398.242 229.356 393.736 222.28 391.303V391.372Z" fill="white"/>
<path d="M598.279 577.472C598.215 571.164 596.39 564.965 592.961 559.413C589.532 553.861 584.603 549.125 578.603 545.615C572.603 542.106 565.713 539.929 558.532 539.275C551.351 538.62 544.095 539.507 537.395 541.859C532.519 533.127 524.656 525.936 514.896 521.281C505.135 516.626 493.96 514.737 482.917 515.876C471.874 517.014 461.509 521.124 453.257 527.637C445.005 534.149 439.274 542.742 436.858 552.225C424.891 552.892 413.692 557.602 405.631 565.359C397.57 573.115 393.282 583.308 393.673 593.779C394.065 604.25 399.106 614.177 407.729 621.457C416.352 628.737 427.88 632.798 439.871 632.781H586.727C594.33 632.698 601.663 630.308 607.471 626.021C613.279 621.735 617.202 615.817 618.567 609.282C619.932 602.747 618.654 596.001 614.953 590.198C611.253 584.395 605.358 579.896 598.279 577.472Z" fill="#D5E1FB"/>
<path d="M457.777 451.796C457.744 448.519 456.795 445.3 455.013 442.417C453.231 439.533 450.67 437.074 447.553 435.253C444.435 433.431 440.856 432.302 437.126 431.965C433.395 431.627 429.627 432.09 426.148 433.314C423.622 428.782 419.544 425.049 414.48 422.633C409.416 420.217 403.617 419.237 397.888 419.829C392.158 420.421 386.781 422.556 382.502 425.937C378.223 429.319 375.254 433.78 374.007 438.702C367.795 439.041 361.98 441.482 357.793 445.505C353.607 449.528 351.379 454.818 351.582 460.253C351.785 465.687 354.403 470.839 358.881 474.615C363.359 478.392 369.344 480.495 375.568 480.48H451.736C455.683 480.458 459.499 479.233 462.524 477.017C465.55 474.802 467.597 471.733 468.312 468.341C469.028 464.949 468.367 461.445 466.444 458.432C464.521 455.42 461.456 453.088 457.777 451.837V451.796Z" fill="white"/>
<path d="M565.137 331.725C565.091 327.396 563.836 323.143 561.481 319.334C559.126 315.525 555.743 312.277 551.624 309.871C547.505 307.464 542.776 305.973 537.848 305.527C532.919 305.081 527.941 305.693 523.345 307.31C520.002 301.328 514.614 296.402 507.925 293.213C501.237 290.024 493.58 288.731 486.013 289.511C478.447 290.292 471.345 293.108 465.69 297.57C460.036 302.032 456.109 307.919 454.452 314.416C446.289 314.917 438.666 318.163 433.184 323.471C427.702 328.78 424.789 335.738 425.056 342.883C425.322 350.029 428.749 356.807 434.615 361.792C440.481 366.777 448.33 369.581 456.513 369.616H557.144C562.387 369.62 567.466 368.017 571.497 365.087C575.527 362.157 578.255 358.085 579.206 353.58C580.156 349.075 579.269 344.421 576.698 340.428C574.128 336.435 570.037 333.355 565.137 331.725Z" fill="#D1DDF7"/>
<path d="M242.481 565.496C242.44 561.166 241.189 556.911 238.835 553.1C236.481 549.29 233.096 546.04 228.975 543.634C224.855 541.228 220.123 539.739 215.193 539.296C210.263 538.854 205.284 539.471 200.689 541.095C197.351 535.111 191.966 530.182 185.28 526.991C178.593 523.799 170.936 522.504 163.37 523.283C155.803 524.062 148.701 526.878 143.047 531.34C137.393 535.802 133.466 541.69 131.812 548.188C123.65 548.688 116.028 551.933 110.546 557.24C105.064 562.547 102.15 569.503 102.414 576.648C102.679 583.793 106.102 590.57 111.966 595.556C117.829 600.542 125.675 603.349 133.857 603.388H234.535C239.778 603.391 244.857 601.788 248.888 598.858C252.919 595.928 255.647 591.856 256.597 587.351C257.547 582.846 256.66 578.192 254.09 574.199C251.519 570.206 247.428 567.127 242.528 565.496H242.481Z" fill="#E0E0E0"/>
<path d="M125.255 428.881C125.05 428.877 124.854 428.804 124.709 428.676C124.633 428.616 124.574 428.542 124.537 428.458C124.515 428.373 124.515 428.284 124.537 428.199C124.515 428.109 124.515 428.016 124.537 427.926C124.574 427.843 124.633 427.768 124.709 427.708C124.82 427.618 124.958 427.556 125.106 427.53C125.255 427.503 125.409 427.513 125.552 427.558C125.643 427.596 125.728 427.647 125.802 427.708C125.877 427.771 125.937 427.848 125.977 427.932C126.017 428.017 126.037 428.107 126.036 428.199C126.058 428.284 126.058 428.373 126.036 428.458C125.999 428.542 125.94 428.616 125.864 428.676C125.785 428.746 125.69 428.8 125.585 428.836C125.48 428.871 125.368 428.886 125.255 428.881Z" fill="#E0E0E0"/>
<path d="M125.255 466.458C125.158 466.478 125.056 466.478 124.959 466.458C124.771 466.386 124.62 466.254 124.537 466.09C124.514 466.005 124.514 465.916 124.537 465.831C124.515 465.746 124.515 465.657 124.537 465.572C124.57 465.487 124.63 465.411 124.709 465.354C124.779 465.289 124.864 465.237 124.959 465.204C125.149 465.135 125.362 465.135 125.552 465.204C125.646 465.237 125.732 465.289 125.802 465.354C125.881 465.411 125.94 465.487 125.973 465.572C125.995 465.657 125.995 465.746 125.973 465.831C125.975 465.92 125.954 466.009 125.914 466.091C125.874 466.173 125.814 466.247 125.739 466.308C125.673 466.377 125.587 466.429 125.489 466.458C125.412 466.471 125.333 466.471 125.255 466.458Z" fill="#E0E0E0"/>
<path d="M277.903 466.458C277.806 466.479 277.704 466.479 277.606 466.458C277.506 466.427 277.415 466.375 277.341 466.308C277.272 466.246 277.218 466.172 277.185 466.09C277.162 466.005 277.162 465.916 277.185 465.831C277.191 465.654 277.269 465.485 277.404 465.354C277.478 465.287 277.569 465.235 277.669 465.204C277.859 465.135 278.072 465.135 278.262 465.204C278.36 465.233 278.446 465.284 278.512 465.354C278.659 465.479 278.743 465.651 278.746 465.831C278.742 466.01 278.658 466.182 278.512 466.308C278.446 466.377 278.36 466.429 278.262 466.458C278.145 466.487 278.021 466.487 277.903 466.458Z" fill="#E0E0E0"/>
<path d="M277.903 385.234C277.805 385.248 277.705 385.248 277.606 385.234L277.341 385.084C277.275 385.02 277.222 384.946 277.185 384.866C277.163 384.78 277.163 384.692 277.185 384.607C277.163 384.517 277.163 384.424 277.185 384.334C277.222 384.254 277.275 384.18 277.341 384.116L277.606 383.966C277.796 383.897 278.01 383.897 278.2 383.966C278.291 384.004 278.375 384.055 278.449 384.116C278.593 384.249 278.677 384.423 278.684 384.607C278.68 384.786 278.596 384.958 278.451 385.085C278.305 385.212 278.109 385.285 277.903 385.289V385.234Z" fill="#E0E0E0"/>
<path d="M502.238 385.234C502.031 385.234 501.833 385.162 501.686 385.034C501.54 384.906 501.458 384.733 501.458 384.552C501.459 384.37 501.537 384.195 501.676 384.061C501.753 384.003 501.837 383.953 501.926 383.911C502.071 383.862 502.228 383.849 502.381 383.876C502.533 383.903 502.673 383.967 502.785 384.061C502.854 384.131 502.912 384.209 502.956 384.293C502.973 384.379 502.973 384.466 502.956 384.552C502.958 384.73 502.879 384.901 502.738 385.029C502.605 385.147 502.427 385.22 502.238 385.234Z" fill="#E0E0E0"/>
<path d="M502.238 330.129C502.134 330.131 502.03 330.113 501.933 330.078C501.836 330.043 501.749 329.991 501.676 329.925C501.535 329.797 501.457 329.625 501.458 329.447C501.442 329.362 501.442 329.274 501.458 329.188C501.502 329.108 501.56 329.035 501.63 328.97C501.778 328.844 501.977 328.774 502.184 328.774C502.391 328.774 502.589 328.844 502.738 328.97C502.879 329.098 502.958 329.269 502.957 329.447C502.973 329.533 502.973 329.621 502.957 329.707C502.912 329.786 502.854 329.86 502.785 329.925C502.716 329.991 502.631 330.043 502.535 330.075C502.442 330.112 502.341 330.131 502.238 330.129Z" fill="#E0E0E0"/>
<path d="M179.583 586.788C179.374 586.791 179.172 586.723 179.021 586.597C178.946 586.531 178.888 586.452 178.849 586.365C178.833 586.279 178.833 586.192 178.849 586.106C178.854 585.927 178.937 585.756 179.083 585.629C179.196 585.536 179.336 585.473 179.488 585.446C179.64 585.42 179.797 585.431 179.942 585.479C180.034 585.516 180.119 585.567 180.192 585.629C180.333 585.757 180.411 585.928 180.41 586.106C180.426 586.192 180.426 586.279 180.41 586.365C180.366 586.449 180.308 586.527 180.238 586.597C180.165 586.655 180.08 586.701 179.989 586.734C179.863 586.788 179.721 586.807 179.583 586.788Z" fill="#E0E0E0"/>
<path d="M179.583 628.621C179.478 628.623 179.374 628.606 179.277 628.571C179.18 628.536 179.093 628.483 179.021 628.416C178.946 628.355 178.888 628.281 178.849 628.198C178.833 628.112 178.833 628.025 178.849 627.939C178.834 627.853 178.834 627.766 178.849 627.68C178.888 627.597 178.946 627.523 179.021 627.462C179.131 627.366 179.272 627.301 179.424 627.274C179.577 627.248 179.735 627.261 179.879 627.312C179.975 627.344 180.06 627.395 180.129 627.462C180.199 627.526 180.257 627.6 180.301 627.68C180.316 627.766 180.316 627.853 180.301 627.939C180.317 628.025 180.317 628.112 180.301 628.198C180.257 628.278 180.199 628.352 180.129 628.416C180.06 628.483 179.975 628.534 179.879 628.566C179.787 628.604 179.685 628.623 179.583 628.621Z" fill="#E0E0E0"/>
<path d="M277.903 628.621C277.806 628.641 277.704 628.641 277.606 628.621C277.506 628.589 277.415 628.538 277.341 628.471C277.272 628.409 277.218 628.335 277.185 628.253C277.162 628.168 277.162 628.079 277.185 627.994C277.184 627.816 277.262 627.644 277.404 627.516C277.478 627.449 277.569 627.398 277.669 627.366C277.859 627.298 278.072 627.298 278.262 627.366C278.36 627.395 278.446 627.447 278.512 627.516C278.658 627.643 278.742 627.814 278.746 627.994C278.768 628.079 278.768 628.168 278.746 628.253C278.707 628.335 278.649 628.41 278.574 628.471C278.508 628.54 278.422 628.592 278.325 628.621C278.188 628.661 278.04 628.661 277.903 628.621Z" fill="#E0E0E0"/>
<path d="M277.903 509.505C277.805 509.52 277.705 509.52 277.606 509.505C277.509 509.468 277.419 509.418 277.341 509.355C277.275 509.291 277.222 509.217 277.185 509.137C277.163 509.052 277.163 508.963 277.185 508.878C277.183 508.696 277.261 508.52 277.403 508.387C277.483 508.329 277.572 508.283 277.669 508.25C277.859 508.182 278.072 508.182 278.262 508.25C278.356 508.28 278.441 508.326 278.512 508.387C278.656 508.52 278.739 508.695 278.746 508.878C278.768 508.963 278.768 509.052 278.746 509.137C278.703 509.218 278.645 509.292 278.574 509.355C278.43 509.484 278.234 509.557 278.028 509.56L277.903 509.505Z" fill="#E0E0E0"/>
<path d="M410.1 509.505C409.895 509.501 409.699 509.428 409.554 509.301C409.483 509.237 409.424 509.163 409.382 509.082C409.367 508.997 409.367 508.909 409.382 508.823C409.366 508.738 409.366 508.65 409.382 508.564C409.42 508.477 409.479 508.399 409.554 508.332C409.625 508.272 409.71 508.225 409.803 508.196C409.895 508.155 409.997 508.134 410.1 508.134C410.203 508.134 410.305 508.155 410.397 508.196C410.493 508.228 410.583 508.274 410.662 508.332C410.732 508.399 410.785 508.478 410.818 508.564C410.841 508.649 410.841 508.738 410.818 508.823C410.819 509.001 410.741 509.173 410.6 509.301C410.463 509.415 410.288 509.487 410.1 509.505Z" fill="#E0E0E0"/>
<path d="M410.1 466.458C409.896 466.46 409.7 466.391 409.554 466.268C409.482 466.199 409.424 466.121 409.382 466.036C409.366 465.95 409.366 465.862 409.382 465.776C409.367 465.691 409.367 465.603 409.382 465.517C409.465 465.353 409.615 465.222 409.803 465.149C409.948 465.1 410.106 465.088 410.258 465.114C410.41 465.141 410.55 465.205 410.662 465.299C410.797 465.431 410.874 465.6 410.881 465.776C410.885 465.867 410.868 465.957 410.83 466.042C410.793 466.126 410.735 466.203 410.662 466.267C410.588 466.331 410.501 466.382 410.404 466.414C410.307 466.447 410.204 466.462 410.1 466.458Z" fill="#E0E0E0"/>
<path d="M502.238 617.259C502.027 617.259 501.825 617.185 501.676 617.055C501.535 616.927 501.457 616.755 501.458 616.577C501.459 616.396 501.537 616.221 501.676 616.086C501.79 615.995 501.931 615.933 502.083 615.909C502.235 615.885 502.392 615.899 502.535 615.95C502.627 615.982 502.711 616.028 502.785 616.086C502.854 616.156 502.912 616.234 502.956 616.318C502.973 616.404 502.973 616.492 502.956 616.577C502.958 616.755 502.879 616.927 502.738 617.055C502.605 617.173 502.427 617.245 502.238 617.259Z" fill="#E0E0E0"/>
<path d="M502.238 672.268C502.133 672.27 502.03 672.252 501.933 672.217C501.836 672.182 501.749 672.13 501.676 672.064C501.546 671.931 501.479 671.761 501.489 671.586C501.473 671.5 501.473 671.413 501.489 671.327C501.533 671.247 501.591 671.174 501.661 671.109C501.809 670.983 502.008 670.913 502.215 670.913C502.422 670.913 502.62 670.983 502.769 671.109C502.91 671.237 502.989 671.408 502.987 671.586C503.002 671.672 503.002 671.76 502.987 671.845C502.943 671.925 502.885 671.999 502.816 672.064C502.747 672.13 502.662 672.181 502.566 672.214C502.464 672.256 502.351 672.274 502.238 672.268Z" fill="#E0E0E0"/>
<path d="M277.903 672.268C277.806 672.288 277.704 672.288 277.606 672.268C277.506 672.236 277.415 672.185 277.341 672.118C277.205 671.988 277.13 671.817 277.13 671.641C277.13 671.464 277.205 671.294 277.341 671.163C277.415 671.096 277.506 671.045 277.606 671.013C277.796 670.945 278.01 670.945 278.2 671.013C278.297 671.042 278.383 671.094 278.449 671.163C278.522 671.226 278.58 671.3 278.619 671.382C278.659 671.464 278.679 671.552 278.679 671.641C278.679 671.73 278.659 671.818 278.619 671.9C278.58 671.982 278.522 672.056 278.449 672.118C278.383 672.187 278.297 672.239 278.2 672.268C278.102 672.288 278.001 672.288 277.903 672.268Z" fill="#E0E0E0"/>
<path d="M277.903 628.621C277.806 628.641 277.704 628.641 277.606 628.621C277.506 628.589 277.415 628.538 277.341 628.471C277.272 628.409 277.218 628.335 277.185 628.253C277.162 628.168 277.162 628.079 277.185 627.994C277.184 627.816 277.262 627.644 277.404 627.516C277.478 627.449 277.569 627.398 277.669 627.366C277.859 627.298 278.072 627.298 278.262 627.366C278.36 627.395 278.446 627.447 278.512 627.516C278.658 627.643 278.742 627.814 278.746 627.994C278.768 628.079 278.768 628.168 278.746 628.253C278.707 628.335 278.649 628.41 278.574 628.471C278.508 628.54 278.422 628.592 278.325 628.621C278.188 628.661 278.04 628.661 277.903 628.621Z" fill="#E0E0E0"/>
<path d="M277.903 466.458C277.806 466.479 277.704 466.479 277.606 466.458C277.506 466.427 277.415 466.375 277.341 466.308C277.272 466.246 277.218 466.172 277.185 466.09C277.162 466.005 277.162 465.916 277.185 465.831C277.191 465.654 277.269 465.485 277.404 465.354C277.478 465.287 277.569 465.235 277.669 465.204C277.859 465.135 278.072 465.135 278.262 465.204C278.36 465.233 278.446 465.284 278.512 465.354C278.659 465.479 278.743 465.651 278.746 465.831C278.742 466.01 278.658 466.182 278.512 466.308C278.446 466.377 278.36 466.429 278.262 466.458C278.145 466.487 278.021 466.487 277.903 466.458Z" fill="#E0E0E0"/>
<path d="M277.903 509.505C277.805 509.52 277.705 509.52 277.606 509.505C277.509 509.468 277.419 509.418 277.341 509.355C277.275 509.291 277.222 509.217 277.185 509.137C277.163 509.052 277.163 508.963 277.185 508.878C277.183 508.696 277.261 508.52 277.403 508.387C277.483 508.329 277.572 508.283 277.669 508.25C277.859 508.182 278.072 508.182 278.262 508.25C278.356 508.28 278.441 508.326 278.512 508.387C278.656 508.52 278.739 508.695 278.746 508.878C278.768 508.963 278.768 509.052 278.746 509.137C278.703 509.218 278.645 509.292 278.574 509.355C278.43 509.484 278.234 509.557 278.028 509.56L277.903 509.505Z" fill="#E0E0E0"/>
</svg>
